# Blender 4.0.1
# www.blender.org
mtllib tile_gate.mtl
o tile_gate
v 0.250000 -0.000000 0.187500
v 0.250000 1.000000 0.187500
v 0.500000 -0.000000 0.187500
v 0.500000 1.000000 0.187500
v 0.204247 1.045753 0.187500
v 0.420753 1.170753 0.187500
v 0.141747 1.104621 0.187500
v 0.266747 1.313980 0.187500
v 0.000000 1.141139 0.187500
v 0.000000 1.374987 0.187500
v 0.277811 0.021177 -0.187181
v 0.250000 -0.000000 -0.169326
v 0.273795 0.975248 -0.187810
v 0.250000 1.000000 -0.169326
v 0.260037 1.024232 -0.187500
v 0.479243 0.027409 -0.185326
v 0.500000 -0.000000 -0.169326
v 0.462040 1.024232 -0.187500
v 0.500000 1.000000 -0.169326
v 0.475329 0.976251 -0.187506
v 0.207740 1.075751 -0.187500
v 0.243711 1.040558 -0.187500
v 0.204247 1.045753 -0.169326
v 0.380237 1.175342 -0.187500
v 0.420753 1.170753 -0.169326
v 0.409926 1.136522 -0.187500
v 0.126904 1.132292 -0.198154
v 0.172532 1.108913 -0.187500
v 0.141747 1.104621 -0.169326
v 0.230646 1.294077 -0.189585
v 0.266747 1.313980 -0.169326
v 0.272189 1.275827 -0.187500
v 0.022019 1.162343 -0.189281
v 0.000000 1.141139 -0.169326
v 0.027988 1.346193 -0.172980
v 0.000000 1.374987 -0.169326
v 0.275311 1.030086 -0.200010
v 0.440536 1.030086 -0.200010
v 0.397910 1.121932 -0.200010
v 0.261958 1.043439 -0.200010
v 0.218174 1.088593 -0.198583
v 0.364047 1.172813 -0.198583
v 0.272676 1.257788 -0.198583
v 0.188400 1.116637 -0.198583
v 0.250000 0.473881 0.187500
v 0.250000 0.807215 0.187500
v 0.500000 0.807215 0.187500
v 0.500000 0.473881 0.187500
v 0.282444 0.803302 -0.185941
v 0.267906 0.487159 -0.175030
v 0.250000 0.473881 -0.169326
v 0.250000 0.807215 -0.169326
v 0.500000 0.807215 -0.169326
v 0.500000 0.473881 -0.169326
v 0.469113 0.477310 -0.181003
v 0.483706 0.794458 -0.191618
v 0.500000 0.236941 0.187500
v 0.271904 0.249918 -0.181629
v 0.500000 0.236941 -0.169326
v 0.250000 0.236941 0.187500
v 0.250000 0.236941 -0.169326
v 0.473336 0.256150 -0.179773
v 0.299223 0.776923 -0.195424
v 0.286703 0.504665 -0.186028
v 0.459979 0.496183 -0.191171
v 0.472547 0.769306 -0.200313
v -0.250000 -0.000000 0.187500
v -0.250000 1.000000 0.187500
v -0.500000 -0.000000 0.187500
v -0.500000 1.000000 0.187500
v -0.204247 1.045753 0.187500
v -0.420753 1.170753 0.187500
v -0.141747 1.104621 0.187500
v -0.266747 1.313980 0.187500
v -0.277811 0.021177 -0.187181
v -0.250000 -0.000000 -0.169326
v -0.273795 0.975248 -0.187810
v -0.250000 1.000000 -0.169326
v -0.260037 1.024232 -0.187500
v -0.479243 0.027409 -0.185326
v -0.500000 -0.000000 -0.169326
v -0.462040 1.024232 -0.187500
v -0.500000 1.000000 -0.169326
v -0.475329 0.976251 -0.187506
v -0.207740 1.075751 -0.187500
v -0.243711 1.040558 -0.187500
v -0.204247 1.045753 -0.169326
v -0.380237 1.175342 -0.187500
v -0.420753 1.170753 -0.169326
v -0.409926 1.136522 -0.187500
v -0.126904 1.132292 -0.198154
v -0.172532 1.108913 -0.187500
v -0.141747 1.104621 -0.169326
v -0.230646 1.294077 -0.189585
v -0.266747 1.313980 -0.169326
v -0.272189 1.275827 -0.187500
v -0.022019 1.162343 -0.189281
v -0.027988 1.346193 -0.172980
v -0.275311 1.030086 -0.200010
v -0.440536 1.030086 -0.200010
v -0.397910 1.121932 -0.200010
v -0.261958 1.043439 -0.200010
v -0.218174 1.088593 -0.198583
v -0.364047 1.172813 -0.198583
v -0.272676 1.257788 -0.198583
v -0.188400 1.116637 -0.198583
v -0.250000 0.473881 0.187500
v -0.250000 0.807215 0.187500
v -0.500000 0.807215 0.187500
v -0.500000 0.473881 0.187500
v -0.282444 0.803302 -0.185941
v -0.267906 0.487159 -0.175030
v -0.250000 0.473881 -0.169326
v -0.250000 0.807215 -0.169326
v -0.500000 0.807215 -0.169326
v -0.500000 0.473881 -0.169326
v -0.469113 0.477310 -0.181003
v -0.483706 0.794458 -0.191618
v -0.500000 0.236941 0.187500
v -0.271904 0.249918 -0.181629
v -0.500000 0.236941 -0.169326
v -0.250000 0.236941 0.187500
v -0.250000 0.236941 -0.169326
v -0.473336 0.256150 -0.179773
v -0.299223 0.776923 -0.195424
v -0.286703 0.504665 -0.186028
v -0.459979 0.496183 -0.191171
v -0.472547 0.769306 -0.200313
vn -0.0273 0.0213 -0.9994
vn -0.7071 -0.7071 -0.0000
vn 0.9071 0.4210 -0.0000
vn -0.0000 -0.0000 1.0000
vn -1.0000 -0.0000 -0.0000
vn 0.5368 0.2491 -0.8061
vn -0.2495 -0.9684 -0.0000
vn 1.0000 -0.0000 -0.0000
vn -0.6856 -0.7279 -0.0000
vn 0.4413 -0.7643 -0.4702
vn 0.6810 0.7323 -0.0000
vn 0.2230 0.9748 -0.0000
vn -0.0583 0.0900 -0.9942
vn -0.7216 -0.1985 -0.6632
vn 0.4980 0.1380 -0.8561
vn -0.4235 -0.4328 -0.7958
vn 0.4177 0.3195 -0.8506
vn -0.2489 -0.7596 -0.6009
vn 0.2389 0.4452 -0.8630
vn -0.4935 0.0084 -0.8697
vn 0.0232 -0.4908 -0.8709
vn -0.0000 0.0063 -1.0000
vn 0.3847 0.0323 -0.9225
vn -0.0000 -0.0000 -1.0000
vn -0.4243 -0.4243 -0.8000
vn 0.5443 0.2526 -0.8000
vn 0.1920 -0.0713 -0.9788
vn 0.4086 0.4394 -0.8000
vn -0.4114 -0.4368 -0.8000
vn -0.7127 0.0849 -0.6963
vn -0.2679 -0.7603 -0.5918
vn 0.0368 0.1609 -0.9863
vn -0.0000 -1.0000 -0.0000
vn -0.4418 0.7652 -0.4682
vn -0.4540 -0.4540 -0.7667
vn -0.0000 -0.9057 -0.4239
vn -0.6471 0.3864 -0.6572
vn -0.3823 -0.4059 -0.8302
vn 0.4442 0.4777 -0.7579
vn 0.5932 -0.0000 -0.8050
vn 0.8073 -0.0000 -0.5901
vn -0.6135 -0.0000 -0.7897
vn -0.4567 -0.0097 -0.8896
vn 0.0094 -0.0054 -0.9999
vn 0.6890 -0.0559 -0.7226
vn 0.0084 0.0245 -0.9997
vn 0.3538 0.0016 -0.9353
vn -0.3176 0.0210 -0.9480
vn -0.0313 -0.0330 -0.9990
vn -0.0499 -0.4923 -0.8690
vn -0.5002 -0.0069 -0.8659
vn -0.0120 0.3315 -0.9434
vn -0.0016 -0.0108 -0.9999
vn 0.7071 -0.7071 -0.0000
vn -0.9071 0.4210 -0.0000
vn -0.5368 0.2491 -0.8061
vn 0.2495 -0.9684 -0.0000
vn 0.6856 -0.7279 -0.0000
vn -0.4413 -0.7643 -0.4702
vn -0.6810 0.7323 -0.0000
vn -0.2230 0.9748 -0.0000
vn 0.0583 0.0900 -0.9942
vn 0.7216 -0.1985 -0.6632
vn -0.4980 0.1380 -0.8561
vn 0.4235 -0.4328 -0.7958
vn -0.4177 0.3195 -0.8506
vn 0.2489 -0.7596 -0.6009
vn -0.2389 0.4452 -0.8630
vn 0.4935 0.0084 -0.8697
vn -0.0000 -0.6446 -0.7645
vn -0.6105 -0.0000 -0.7920
vn 0.4243 -0.4243 -0.8000
vn -0.5443 0.2526 -0.8000
vn -0.1920 -0.0713 -0.9788
vn -0.4086 0.4394 -0.8000
vn 0.4114 -0.4368 -0.8000
vn 0.1295 -0.0000 -0.9916
vn 0.1518 -0.5892 -0.7936
vn -0.0368 0.1609 -0.9863
vn 0.4418 0.7653 -0.4681
vn 0.4540 -0.4540 -0.7667
vn -0.0000 -0.9057 -0.4238
vn 0.6471 0.3863 -0.6573
vn 0.3823 -0.4059 -0.8302
vn -0.4442 0.4777 -0.7579
vn -0.5932 -0.0000 -0.8050
vn -0.8073 -0.0000 -0.5901
vn 0.4587 -0.0327 -0.8880
vn 0.4567 -0.0097 -0.8896
vn 0.0283 0.0273 -0.9992
vn -0.6890 -0.0559 -0.7226
vn -0.0084 0.0245 -0.9997
vn -0.3648 -0.0000 -0.9311
vn 0.3176 0.0210 -0.9480
vn 0.0313 -0.0330 -0.9990
vn 0.0499 -0.4923 -0.8690
vn 0.5002 -0.0069 -0.8659
vn 0.0120 0.3315 -0.9434
vn 0.0016 -0.0108 -0.9999
vn -0.5403 -0.0000 -0.8415
vn 0.0015 0.0005 -1.0000
vn 0.6105 -0.0000 -0.7920
vn 0.0397 -0.0237 -0.9989
vn -0.1295 -0.0000 -0.9916
vn -0.1518 -0.5892 -0.7936
vn 0.0955 0.6197 -0.7790
vn -0.4418 0.7653 -0.4681
vn -0.6471 0.3863 -0.6573
vn 0.7924 0.0503 -0.6079
vn 0.3486 -0.0474 -0.9361
vn -0.4587 -0.0327 -0.8880
vn -0.3035 -0.0000 -0.9528
vn -0.0283 0.0273 -0.9992
vn 0.0085 0.0245 -0.9997
vn 0.3648 -0.0000 -0.9311
vn -0.4897 -0.0000 -0.8719
vn -0.0296 -0.0321 -0.9990
vn 0.0273 0.0213 -0.9994
vn 0.5403 -0.0000 -0.8415
vn -0.0232 -0.4908 -0.8709
vn -0.0015 0.0005 -1.0000
vn -0.3847 0.0323 -0.9225
vn -0.0397 -0.0237 -0.9989
vn 0.7127 0.0849 -0.6963
vn 0.2679 -0.7603 -0.5918
vn -0.0955 0.6197 -0.7790
vn 0.4418 0.7652 -0.4682
vn 0.6471 0.3864 -0.6572
vn 0.3823 -0.4058 -0.8302
vn -0.7924 0.0503 -0.6079
vn -0.3486 -0.0474 -0.9361
vn 0.6135 -0.0000 -0.7897
vn 0.3035 -0.0000 -0.9528
vn -0.0094 -0.0054 -0.9999
vn -0.0085 0.0245 -0.9997
vn -0.3538 0.0016 -0.9353
vn 0.4897 -0.0000 -0.8719
vn 0.0296 -0.0321 -0.9990
vt 0.951635 -0.044940
vt 1.106105 -0.182908
vt 1.112926 -0.038038
vt -0.181107 1.002039
vt 0.107032 0.965387
vt 0.101685 1.002039
vt 1.411206 0.300200
vt 1.125355 0.439834
vt 1.125355 0.300200
vt 0.324738 0.301093
vt 0.124465 0.146654
vt 0.324738 0.146654
vt 0.324738 0.594558
vt 0.610589 0.748857
vt 0.324738 0.748857
vt 1.053742 -0.310065
vt 1.078595 -0.224323
vt 1.044468 -0.297174
vt -0.168880 0.915318
vt 0.118180 0.801766
vt 0.113912 0.915318
vt 0.124465 0.301093
vt 0.261254 0.437882
vt 0.087813 0.337746
vt 1.125355 0.145933
vt 1.411206 0.145933
vt -0.175760 0.965387
vt 0.037744 0.384904
vt -0.075808 0.601493
vt -0.075808 0.414159
vt 0.175222 1.039586
vt 0.184769 0.910103
vt 0.184769 1.027375
vt 0.137881 0.552620
vt 1.411206 0.439834
vt 1.125355 0.560268
vt -0.476355 1.164746
vt -0.181108 0.972525
vt -0.192886 1.160755
vt 0.896440 1.179826
vt 1.083605 0.893975
vt 1.083605 1.179826
vt 0.827444 -0.304657
vt 0.747555 -0.476845
vt 0.910265 -0.434460
vt 0.274231 0.939649
vt 0.259546 0.920553
vt 0.274231 0.900910
vt 1.095466 -0.220998
vt 1.125355 -0.203691
vt 0.891869 -0.261066
vt 0.920668 -0.233219
vt 0.888571 -0.239033
vt 1.029973 -0.340816
vt 1.061909 -0.339130
vt 0.184769 0.939051
vt 0.187279 0.900911
vt 0.207434 0.921504
vt 0.938609 -0.452434
vt 0.943468 -0.420308
vt 0.947960 0.576828
vt 0.925201 0.403647
vt 0.943078 0.394490
vt 1.125355 0.591102
vt 1.109179 0.570992
vt 0.944762 -0.181384
vt 0.933739 -0.220300
vt 1.125355 0.402783
vt 1.104296 0.388655
vt 0.925201 -0.202827
vt 0.863681 -0.287301
vt 0.838532 -0.285605
vt 0.725047 -0.314139
vt 0.743227 -0.329068
vt 0.207434 1.020035
vt 0.725047 -0.500000
vt 0.118180 0.884285
vt 0.318453 0.601493
vt 0.318453 0.884285
vt 0.946313 -0.223752
vt 0.155045 1.051382
vt 0.165676 0.913976
vt 0.165676 1.037051
vt 0.935622 -0.234319
vt 0.144447 0.900911
vt 0.155045 1.045507
vt 0.144447 1.062734
vt 0.900528 -0.270198
vt 0.944164 -0.404861
vt 1.017317 -0.337640
vt 0.876691 -0.292385
vt 1.125355 -0.050467
vt 1.411206 -0.120800
vt 1.429064 0.136341
vt 0.925201 -0.049603
vt 0.939694 0.205285
vt 1.125355 -0.310400
vt 1.411206 -0.310400
vt 1.125355 -0.120800
vt 0.324738 1.015648
vt 0.610589 1.205288
vt 0.324738 1.205288
vt 0.610589 1.015648
vt 0.324738 -0.120377
vt 0.124465 -0.310188
vt 0.324738 -0.310188
vt 0.124465 -0.120377
vt 1.100949 0.213016
vt 1.104232 -0.017137
vt 0.124465 -0.500000
vt 0.324738 -0.500000
vt 0.610589 1.394929
vt 0.324738 1.394929
vt 1.125355 -0.500000
vt 1.411206 -0.500000
vt 1.125355 0.214464
vt 0.925201 0.215328
vt 0.829977 0.254575
vt 0.671067 0.329810
vt 0.670174 0.254058
vt 0.955047 0.192409
vt 1.093917 0.199067
vt 0.965331 -0.023082
vt 0.499376 -0.042988
vt 0.344992 -0.179623
vt 0.506352 -0.179492
vt 0.107032 0.638145
vt -0.181107 0.601493
vt 0.101685 0.601493
vt 1.125355 0.560268
vt 1.411206 0.699629
vt 1.125355 0.699629
vt -0.276082 0.146654
vt -0.476355 0.301093
vt -0.476355 0.146654
vt 0.896440 1.240491
vt 0.610589 1.394758
vt 0.610589 1.240491
vt 0.397355 -0.307232
vt 0.373193 -0.221278
vt 0.355632 -0.217804
vt -0.168880 0.688213
vt 0.113912 0.688213
vt -0.276082 0.301093
vt -0.412871 0.437882
vt 1.125355 0.853928
vt 1.411206 0.853928
vt -0.175760 0.638145
vt -0.189361 0.384904
vt -0.289497 0.552620
vt 0.175222 1.039586
vt 0.165676 0.910103
vt 0.175222 0.900910
vt -0.239429 0.337746
vt -0.181657 0.754192
vt -0.476355 0.605484
vt -0.192886 0.601493
vt -0.465126 0.758183
vt 0.702740 -0.476652
vt 0.624241 -0.303780
vt 0.540947 -0.432866
vt 0.274231 0.939588
vt 0.288917 0.920587
vt 0.324738 -0.200235
vt 0.559228 -0.259630
vt 0.561523 -0.237621
vt 0.530429 -0.231535
vt 0.421124 -0.338188
vt 0.388185 -0.336222
vt 0.230100 0.939050
vt 0.207435 0.921504
vt 0.227590 0.900910
vt 0.507629 -0.418426
vt 0.511485 -0.450590
vt 0.524893 0.405375
vt 0.503119 0.578748
vt 0.507695 0.396369
vt 1.096713 0.877350
vt 0.918719 0.893976
vt 0.896440 0.877350
vt 0.517359 -0.218503
vt 0.324738 0.406239
vt 0.341798 0.574305
vt 0.324738 0.594558
vt 0.524893 -0.201099
vt 0.587417 -0.286109
vt 0.230100 0.900910
vt 0.248699 1.005362
vt 0.230100 1.018171
vt 0.896440 0.594558
vt 0.407320 -0.294424
vt 0.505475 -0.221849
vt 0.259546 1.004745
vt 0.248700 0.908044
vt 0.259546 0.900910
vt 0.516166 -0.232508
vt 0.144447 0.918137
vt 0.133848 1.062734
vt 0.133848 0.900911
vt 0.507546 -0.402977
vt 0.551181 -0.268690
vt 0.434392 -0.335124
vt 0.575018 -0.291082
vt 0.324738 -0.047011
vt 1.429064 0.863585
vt 1.411206 1.120719
vt 0.524893 -0.047875
vt 0.510714 0.207137
vt 1.125355 1.310359
vt 1.411206 1.310359
vt 1.125355 1.120719
vt 0.896440 0.784158
vt 0.610589 0.973757
vt 0.610589 0.784158
vt 0.896440 0.973757
vt -0.276082 -0.310188
vt -0.476355 -0.120377
vt -0.476355 -0.310188
vt -0.276082 -0.120377
vt 0.349789 0.216259
vt 0.347573 -0.013871
vt 0.338399 -0.034694
vt -0.276082 -0.500000
vt -0.476355 -0.500000
vt 0.896440 0.594558
vt 0.610589 0.594558
vt 1.125355 1.500000
vt 1.411206 1.500000
vt 0.324738 0.217920
vt 0.346374 0.391926
vt 0.524893 0.217056
vt 0.357383 0.202246
vt 0.486204 -0.021014
vt 0.495969 0.194390
vt -0.164612 0.801766
vt 0.175222 0.900911
vt 1.411206 0.560268
vt -0.464576 0.976516
vt 0.896440 0.893975
vt 0.925201 0.591966
vt 0.296174 0.900911
vt 0.118180 0.601493
vt 0.155046 0.900911
vt 0.155045 0.913146
vt 1.425770 0.282129
vt 0.830582 0.329546
vt 1.411206 0.560268
vt 0.896440 1.394758
vt 0.165676 1.027375
vt 0.707969 -0.328916
vt 0.524893 0.593694
vt 0.611562 -0.284625
vt 0.118180 0.900911
vt 0.133848 0.918991
vt 0.118180 1.066079
vt 0.207435 1.020035
vt 1.096713 0.594558
vt 0.248700 0.992973
vt 0.144447 1.050498
vt 1.425770 0.717798
s 0
usemtl brick_wall
f 49/1/1 20/2/1 56/3/1
f 2/4/2 23/5/2 14/6/2
f 19/7/3 6/8/3 4/9/3
f 4/10/4 46/11/4 47/12/4
f 2/13/5 52/14/5 46/15/5
f 26/16/6 38/17/6 39/18/6
f 7/19/7 34/20/7 29/21/7
f 2/22/4 6/23/4 5/24/4
f 19/7/8 47/25/8 53/26/8
f 5/27/9 29/21/9 23/5/9
f 7/28/4 10/29/4 9/30/4
f 24/31/10 41/32/10 42/33/10
f 5/24/4 8/34/4 7/28/4
f 25/35/11 8/36/11 6/8/11
f 31/37/12 10/38/12 8/39/12
f 34/40/5 10/41/5 36/42/5
f 27/43/13 35/44/13 30/45/13
f 13/46/14 14/47/14 15/48/14
f 18/49/15 19/50/15 20/2/15
f 21/51/16 22/52/16 23/53/16
f 24/54/17 25/55/17 26/16/17
f 27/56/18 28/57/18 29/58/18
f 30/45/19 31/59/19 32/60/19
f 11/61/20 61/62/20 58/63/20
f 17/64/21 11/61/21 16/65/21
f 18/49/22 13/66/22 15/67/22
f 59/68/23 16/65/23 62/69/23
f 24/54/24 22/52/24 21/51/24
f 22/52/25 14/70/25 23/53/25
f 25/55/26 18/49/26 26/16/26
f 30/45/27 28/71/27 27/43/27
f 24/54/28 31/59/28 25/55/28
f 28/71/29 23/53/29 29/72/29
f 34/73/30 35/44/30 33/74/30
f 29/58/31 33/75/31 27/56/31
f 31/59/32 35/44/32 36/76/32
f 17/77/33 1/78/33 12/79/33
f 37/80/24 39/18/24 38/17/24
f 22/81/34 39/82/34 40/83/34
f 15/67/35 40/84/35 37/80/35
f 15/85/36 38/86/36 18/87/36
f 41/88/24 43/89/24 42/90/24
f 28/71/37 43/89/37 44/91/37
f 21/51/38 44/91/38 41/88/38
f 24/54/39 43/89/39 32/60/39
f 53/92/40 20/2/40 19/50/40
f 54/93/41 56/94/41 53/26/41
f 13/66/42 52/95/42 14/70/42
f 50/96/43 52/95/43 49/1/43
f 54/93/8 57/97/8 59/98/8
f 53/26/8 48/99/8 54/93/8
f 45/100/5 61/101/5 60/102/5
f 46/15/5 51/103/5 45/100/5
f 48/104/4 60/105/4 57/106/4
f 47/12/4 45/107/4 48/104/4
f 58/63/44 55/108/44 62/69/44
f 55/108/45 66/109/45 56/3/45
f 58/63/46 16/65/46 11/61/46
f 57/106/4 1/110/4 3/111/4
f 60/102/5 12/112/5 1/113/5
f 59/98/8 3/114/8 17/115/8
f 54/116/47 62/69/47 55/108/47
f 58/63/48 51/117/48 50/96/48
f 63/118/49 65/119/49 64/120/49
f 55/108/50 64/121/50 65/122/50
f 50/96/51 63/123/51 64/121/51
f 56/3/52 63/123/52 49/1/52
f 111/124/53 84/125/53 77/126/53
f 87/127/54 68/128/54 78/129/54
f 72/130/55 83/131/55 70/132/55
f 108/133/4 70/134/4 109/135/4
f 114/136/8 68/137/8 108/138/8
f 90/139/56 100/140/56 82/141/56
f 34/20/57 73/142/57 93/143/57
f 68/144/4 72/145/4 70/134/4
f 109/146/5 83/131/5 115/147/5
f 93/143/58 71/148/58 87/127/58
f 73/149/4 10/29/4 74/150/4
f 88/151/59 103/152/59 85/153/59
f 71/154/4 74/150/4 72/145/4
f 74/155/60 89/156/60 72/157/60
f 10/38/61 95/158/61 74/155/61
f 98/159/62 91/160/62 94/161/62
f 77/162/63 79/48/63 78/163/63
f 82/141/64 84/125/64 83/164/64
f 85/165/65 87/166/65 86/167/65
f 88/168/66 90/139/66 89/169/66
f 91/170/67 93/171/67 92/172/67
f 94/161/68 96/173/68 95/174/68
f 123/175/69 75/176/69 120/177/69
f 81/178/70 75/179/70 76/180/70
f 77/126/22 82/141/22 79/181/22
f 121/182/71 80/183/71 81/184/71
f 86/167/24 88/168/24 85/165/24
f 86/167/72 78/185/72 79/181/72
f 89/169/73 82/141/73 83/164/73
f 92/186/74 94/161/74 91/160/74
f 88/168/75 95/174/75 96/173/75
f 92/186/76 87/166/76 85/165/76
f 34/73/77 98/159/77 36/76/77
f 93/187/78 97/188/78 34/189/78
f 98/159/79 95/174/79 36/76/79
f 67/190/33 81/178/33 76/180/33
f 101/191/24 99/192/24 100/140/24
f 86/193/80 101/194/80 90/195/80
f 79/181/81 102/196/81 86/167/81
f 100/197/82 79/198/82 82/199/82
f 105/200/24 103/201/24 104/202/24
f 92/186/83 105/200/83 96/173/83
f 85/165/84 106/203/84 92/186/84
f 105/200/85 88/168/85 96/173/85
f 84/125/86 115/204/86 83/164/86
f 118/205/87 116/206/87 115/147/87
f 77/126/88 114/207/88 111/124/88
f 114/207/89 112/208/89 111/124/89
f 119/209/5 116/206/5 121/210/5
f 110/211/5 115/147/5 116/206/5
f 123/212/8 107/213/8 122/214/8
f 113/215/8 108/138/8 107/213/8
f 122/216/4 110/217/4 119/218/4
f 107/219/4 109/135/4 110/217/4
f 120/177/90 117/220/90 112/208/90
f 128/221/91 117/220/91 118/222/91
f 80/183/92 120/177/92 75/176/92
f 67/223/4 119/218/4 69/224/4
f 76/225/8 122/214/8 67/226/8
f 69/227/5 121/210/5 81/228/5
f 116/229/93 124/230/93 121/182/93
f 113/231/94 120/177/94 112/208/94
f 127/232/95 125/233/95 126/234/95
f 117/220/96 126/234/96 112/208/96
f 112/208/97 125/233/97 111/124/97
f 125/233/98 118/222/98 111/124/98
f 49/1/99 13/66/99 20/2/99
f 2/4/2 5/27/2 23/5/2
f 19/7/3 25/35/3 6/8/3
f 4/10/4 2/22/4 46/11/4
f 2/13/5 14/226/5 52/14/5
f 26/16/6 18/49/6 38/17/6
f 7/19/7 9/235/7 34/20/7
f 2/22/4 4/10/4 6/23/4
f 19/7/8 4/9/8 47/25/8
f 5/27/9 7/19/9 29/21/9
f 7/28/4 8/34/4 10/29/4
f 24/31/10 21/236/10 41/32/10
f 5/24/4 6/23/4 8/34/4
f 25/35/11 31/237/11 8/36/11
f 31/37/12 36/238/12 10/38/12
f 34/40/5 9/239/5 10/41/5
f 27/43/13 33/74/13 35/44/13
f 11/61/100 12/240/100 61/62/100
f 17/77/70 12/79/70 11/241/70
f 18/49/101 20/2/101 13/66/101
f 59/68/102 17/64/102 16/65/102
f 24/54/24 26/16/24 22/52/24
f 22/52/25 15/67/25 14/70/25
f 25/55/26 19/50/26 18/49/26
f 30/45/103 32/60/103 28/71/103
f 24/54/28 32/60/28 31/59/28
f 28/71/29 21/51/29 23/53/29
f 34/73/104 36/76/104 35/44/104
f 29/72/105 34/73/105 33/74/105
f 31/59/106 30/45/106 35/44/106
f 17/77/33 3/242/33 1/78/33
f 37/80/24 40/84/24 39/18/24
f 22/81/107 26/243/107 39/82/107
f 15/67/35 22/52/35 40/84/35
f 15/85/82 37/244/82 38/86/82
f 41/88/24 44/91/24 43/89/24
f 28/71/108 32/60/108 43/89/108
f 21/51/38 28/71/38 44/91/38
f 24/54/39 42/90/39 43/89/39
f 53/26/109 56/94/109 20/245/109
f 54/116/110 55/108/110 56/3/110
f 13/66/111 49/1/111 52/95/111
f 50/96/112 51/117/112 52/95/112
f 54/93/8 48/99/8 57/97/8
f 53/26/8 47/25/8 48/99/8
f 45/100/5 51/103/5 61/101/5
f 46/15/5 52/14/5 51/103/5
f 48/104/4 45/107/4 60/105/4
f 47/12/4 46/11/4 45/107/4
f 58/63/113 50/96/113 55/108/113
f 55/108/45 65/122/45 66/109/45
f 58/63/114 62/69/114 16/65/114
f 57/106/4 60/105/4 1/110/4
f 60/102/5 61/101/5 12/112/5
f 59/98/8 57/97/8 3/114/8
f 54/116/115 59/68/115 62/69/115
f 58/63/116 61/62/116 51/117/116
f 63/118/117 66/246/117 65/119/117
f 55/108/50 50/96/50 64/121/50
f 50/96/51 49/1/51 63/123/51
f 56/3/52 66/109/52 63/123/52
f 111/124/118 118/222/118 84/125/118
f 87/127/54 71/148/54 68/128/54
f 72/130/55 89/247/55 83/131/55
f 108/133/4 68/144/4 70/134/4
f 114/136/8 78/248/8 68/137/8
f 90/139/56 101/191/56 100/140/56
f 34/20/57 9/235/57 73/142/57
f 68/144/4 71/154/4 72/145/4
f 109/146/5 70/132/5 83/131/5
f 93/143/58 73/142/58 71/148/58
f 73/149/4 9/30/4 10/29/4
f 88/151/59 104/249/59 103/152/59
f 71/154/4 73/149/4 74/150/4
f 74/155/60 95/158/60 89/156/60
f 10/38/61 36/238/61 95/158/61
f 98/159/62 97/250/62 91/160/62
f 123/175/119 76/251/119 75/176/119
f 81/184/120 80/183/120 75/176/120
f 77/126/121 84/125/121 82/141/121
f 121/182/122 124/230/122 80/183/122
f 86/167/24 90/139/24 88/168/24
f 86/167/72 87/166/72 78/185/72
f 89/169/73 90/139/73 82/141/73
f 92/186/123 96/173/123 94/161/123
f 88/168/75 89/169/75 95/174/75
f 92/186/76 93/252/76 87/166/76
f 34/253/124 97/254/124 98/255/124
f 93/171/125 91/170/125 97/256/125
f 98/159/126 94/161/126 95/174/126
f 67/190/33 69/257/33 81/178/33
f 101/191/24 102/196/24 99/192/24
f 86/193/127 102/258/127 101/194/127
f 79/181/81 99/192/81 102/196/81
f 100/197/82 99/259/82 79/198/82
f 105/200/24 106/203/24 103/201/24
f 92/186/128 106/203/128 105/200/128
f 85/165/129 103/201/129 106/203/129
f 105/200/85 104/202/85 88/168/85
f 84/260/130 118/205/130 115/147/130
f 118/222/131 117/220/131 116/229/131
f 77/126/132 78/185/132 114/207/132
f 114/207/133 113/231/133 112/208/133
f 119/209/5 110/211/5 116/206/5
f 110/211/5 109/146/5 115/147/5
f 123/212/8 113/215/8 107/213/8
f 113/215/8 114/136/8 108/138/8
f 122/216/4 107/219/4 110/217/4
f 107/219/4 108/133/4 109/135/4
f 120/177/134 124/230/134 117/220/134
f 128/221/91 127/232/91 117/220/91
f 80/183/135 124/230/135 120/177/135
f 67/223/4 122/216/4 119/218/4
f 76/225/8 123/212/8 122/214/8
f 69/227/5 119/209/5 121/210/5
f 116/229/136 117/220/136 124/230/136
f 113/231/137 123/175/137 120/177/137
f 127/232/138 128/221/138 125/233/138
f 117/220/96 127/232/96 126/234/96
f 112/208/97 126/234/97 125/233/97
f 125/233/98 128/221/98 118/222/98
