# Blender 4.0.1
# www.blender.org
mtllib sunhighlight.mtl
o Sun1
v -1.002804 0.000000 -0.643820
v -1.501293 0.000000 -0.589900
v -1.172849 0.000000 -0.211055
v -1.612759 0.000000 0.029523
v -1.164339 0.000000 0.253840
v -1.478697 0.000000 0.644452
v -0.978569 0.000000 0.680091
v -1.119517 0.000000 1.161269
v -0.643820 0.000000 1.002804
v -0.589900 0.000000 1.501293
v -0.211055 0.000000 1.172849
v 0.029523 0.000000 1.612759
v 0.253840 0.000000 1.164339
v 0.644452 0.000000 1.478697
v 0.680091 0.000000 0.978569
v 1.161269 0.000000 1.119517
v 1.002804 0.000000 0.643820
v 1.501293 0.000000 0.589900
v 1.172849 0.000000 0.211055
v 1.612759 0.000000 -0.029523
v 1.164339 0.000000 -0.253840
v 1.478697 0.000000 -0.644452
v 0.978569 0.000000 -0.680091
v 1.119517 0.000000 -1.161269
v 0.643820 0.000000 -1.002804
v 0.589900 0.000000 -1.501293
v 0.211055 0.000000 -1.172849
v -0.029523 0.000000 -1.612759
v -0.253840 0.000000 -1.164339
v -0.644452 0.000000 -1.478697
v -0.680091 0.000000 -0.978569
v -1.161269 0.000000 -1.119517
vn -0.0000 1.0000 -0.0000
vt 0.000000 0.000000
s 0
usemtl sunhighlight
f 17/1/1 25/1/1 1/1/1
f 1/1/1 2/1/1 3/1/1
f 3/1/1 4/1/1 5/1/1
f 5/1/1 6/1/1 7/1/1
f 7/1/1 8/1/1 9/1/1
f 9/1/1 10/1/1 11/1/1
f 11/1/1 12/1/1 13/1/1
f 13/1/1 14/1/1 15/1/1
f 15/1/1 16/1/1 17/1/1
f 17/1/1 18/1/1 19/1/1
f 19/1/1 20/1/1 21/1/1
f 21/1/1 22/1/1 23/1/1
f 23/1/1 24/1/1 25/1/1
f 25/1/1 26/1/1 27/1/1
f 27/1/1 28/1/1 29/1/1
f 29/1/1 30/1/1 31/1/1
f 31/1/1 32/1/1 1/1/1
f 1/1/1 3/1/1 5/1/1
f 5/1/1 7/1/1 9/1/1
f 9/1/1 11/1/1 13/1/1
f 13/1/1 15/1/1 17/1/1
f 17/1/1 19/1/1 21/1/1
f 21/1/1 23/1/1 25/1/1
f 25/1/1 27/1/1 29/1/1
f 29/1/1 31/1/1 1/1/1
f 1/1/1 5/1/1 9/1/1
f 9/1/1 13/1/1 17/1/1
f 17/1/1 21/1/1 25/1/1
f 25/1/1 29/1/1 1/1/1
f 1/1/1 9/1/1 17/1/1
