# Blender 4.0.1
# www.blender.org
o Cube
v -0.500000 -0.250000 0.500000
v -0.500000 0.250000 0.500000
v -0.500000 -0.250000 -0.500000
v -0.500000 0.250000 -0.500000
v 0.500000 -0.250000 0.500000
v 0.500000 0.250000 0.500000
v 0.500000 -0.250000 -0.500000
v 0.500000 0.250000 -0.500000
vn -1.0000 -0.0000 -0.0000
vn -0.0000 -0.0000 -1.0000
vn 1.0000 -0.0000 -0.0000
vn -0.0000 -0.0000 1.0000
vn -0.0000 -1.0000 -0.0000
vn -0.0000 1.0000 -0.0000
vt 0.250000 0.875058
vt 0.000000 0.750058
vt 0.250000 0.750058
vt 0.500000 0.875058
vt 0.500000 0.750058
vt 0.750000 0.875058
vt 0.750000 0.750058
vt 1.000000 0.875058
vt 1.000000 0.750058
vt 0.500000 0.625000
vt 0.750000 0.875000
vt 0.500000 0.875000
vt 0.500000 0.375000
vt 0.750000 0.125000
vt 0.750000 0.375000
vt 0.000000 0.875058
vt 0.750000 0.625000
vt 0.500000 0.125000
s 0
f 2/1/1 3/2/1 1/3/1
f 4/4/2 7/3/2 3/5/2
f 8/6/3 5/5/3 7/7/3
f 6/8/4 1/7/4 5/9/4
f 7/10/5 1/11/5 3/12/5
f 4/13/6 6/14/6 8/15/6
f 2/1/1 4/16/1 3/2/1
f 4/4/2 8/1/2 7/3/2
f 8/6/3 6/4/3 5/5/3
f 6/8/4 2/6/4 1/7/4
f 7/10/5 5/17/5 1/11/5
f 4/13/6 2/18/6 6/14/6
