# Blender 4.0.1
# www.blender.org
mtllib editor_camera.mtl
o camera
v 0.093750 -0.125000 0.187500
v 0.093750 0.125000 0.187500
v -0.093750 -0.125000 0.187500
v -0.093750 0.125000 0.187500
v 0.093750 -0.125000 -0.187500
v 0.093750 0.125000 -0.187500
v -0.093750 -0.125000 -0.187500
v -0.093750 0.125000 -0.187500
v 0.053720 -0.071627 -0.187500
v 0.053720 0.071627 -0.187500
v -0.053720 -0.071627 -0.187500
v -0.053720 0.071627 -0.187500
v 0.117039 -0.156053 -0.383735
v 0.117039 0.156053 -0.383735
v -0.117039 -0.156053 -0.383735
v -0.117039 0.156053 -0.383735
v -0.128270 0.199858 -0.074534
v -0.078270 0.199858 -0.074534
v -0.128270 0.163246 -0.162922
v -0.078270 0.163246 -0.162922
v -0.128270 0.074858 -0.199534
v -0.078270 0.074858 -0.199534
v -0.128270 -0.013530 -0.162922
v -0.078270 -0.013530 -0.162922
v -0.128270 -0.050142 -0.074534
v -0.078270 -0.050142 -0.074534
v -0.128270 -0.013530 0.013855
v -0.078270 -0.013530 0.013855
v -0.128270 0.074858 0.050466
v -0.078270 0.074858 0.050466
v -0.128270 0.163246 0.013855
v -0.078270 0.163246 0.013855
v -0.122722 0.153716 0.164229
v -0.083817 0.153716 0.164229
v -0.122722 0.156603 0.089844
v -0.083817 0.156603 0.089844
v -0.122722 0.106048 0.035204
v -0.083817 0.106048 0.035204
v -0.122722 0.031663 0.032316
v -0.083817 0.031663 0.032316
v -0.122722 -0.022977 0.082872
v -0.083817 -0.022977 0.082872
v -0.122722 -0.025865 0.157257
v -0.083817 -0.025865 0.157257
v -0.122722 0.024691 0.211897
v -0.083817 0.024691 0.211897
v -0.122722 0.099075 0.214785
v -0.083817 0.099075 0.214785
v 0.121682 0.032522 0.268034
v 0.121682 0.085915 0.268034
v 0.072844 0.032522 0.268034
v 0.072844 0.085915 0.268034
v 0.121682 0.032522 -0.129256
v 0.121682 0.085915 -0.129256
v 0.072844 0.032522 -0.129256
v 0.072844 0.085915 -0.129256
vn -0.0000 -0.0000 1.0000
vn -1.0000 -0.0000 -0.0000
vn -0.0000 -0.0000 -1.0000
vn 1.0000 -0.0000 -0.0000
vn -0.0000 -1.0000 -0.0000
vn -0.0000 1.0000 -0.0000
vn -0.9517 -0.0000 0.3071
vn 0.9517 -0.0000 0.3071
vn -0.0000 -0.9186 0.3952
vn -0.0000 0.9186 0.3952
vn -0.0000 0.9239 -0.3827
vn -0.0000 0.3827 -0.9239
vn -0.0000 -0.3827 -0.9239
vn -0.0000 -0.9239 -0.3827
vn -0.0000 -0.9239 0.3827
vn -0.0000 -0.3827 0.9239
vn -0.0000 0.3827 0.9239
vn -0.0000 0.9239 0.3827
vn -0.0000 0.9992 0.0388
vn -0.0000 0.7340 -0.6791
vn -0.0000 0.0388 -0.9992
vn -0.0000 -0.6791 -0.7340
vn -0.0000 -0.9992 -0.0388
vn -0.0000 -0.7340 0.6791
vn -0.0000 -0.0388 0.9992
vn -0.0000 0.6791 0.7340
vt 0.250000 0.000000
vt 0.125000 0.125000
vt 0.125000 0.000000
vt 0.250000 0.125000
vt 0.125000 0.250000
vt 0.250000 0.375000
vt 0.250000 0.250000
vt 0.125000 0.500000
vt 0.125000 0.375000
vt 0.000000 0.375000
vt 0.000000 0.250000
vt 0.375000 0.250000
vt 0.250000 0.500000
vt -0.000000 0.562500
vt -0.000000 0.500000
vt 0.250000 0.562500
vt -0.000000 0.625000
vt 0.250000 0.625000
vt 0.000000 0.687500
vt 0.250000 0.750000
vt 0.000000 0.750000
vt 0.000000 0.812500
vt 0.250000 0.875000
vt 0.000000 0.875000
vt 0.758406 0.721731
vt 0.693462 0.564943
vt 0.850250 0.500000
vt 0.000000 0.937500
vt 0.250000 0.937500
vt 0.000000 1.000000
vt 0.314944 0.500000
vt 0.250000 0.656788
vt 0.406788 0.721731
vt 1.000000 -0.000000
vt 0.750000 0.062500
vt 0.750000 -0.000000
vt 1.000000 0.062500
vt 0.750000 0.125000
vt 1.000000 0.125000
vt 0.750000 0.187500
vt 1.000000 0.250000
vt 0.750000 0.250000
vt 1.000000 0.312500
vt 0.750000 0.312500
vt 0.750000 0.375000
vt 0.314943 0.943462
vt 0.250000 0.786675
vt 0.406788 0.721731
vt 1.000000 0.437500
vt 0.750000 0.437500
vt 0.750000 0.500000
vt 0.536675 0.500000
vt 0.471731 0.656788
vt 0.628519 0.721731
vt 0.625000 0.000000
vt 0.500000 0.125000
vt 0.500000 0.000000
vt 0.625000 0.125000
vt 0.500000 0.250000
vt 0.625000 0.250000
vt 0.500000 0.375000
vt 0.625000 0.375000
vt 0.500000 0.500000
vt 0.375000 0.375000
vt 0.750000 0.250000
vt 0.250000 0.500000
vt 0.250000 0.687500
vt 0.250000 0.812500
vt 0.915193 0.564944
vt 0.915193 0.656788
vt 0.850250 0.721731
vt 0.693462 0.656788
vt 0.758406 0.500000
vt 0.250000 1.000000
vt 0.471731 0.564943
vt 0.406788 0.500000
vt 0.250000 0.564943
vt 0.314944 0.721731
vt 1.000000 0.187500
vt 1.000000 0.375000
vt 0.471731 0.786675
vt 0.471731 0.878519
vt 0.406787 0.943462
vt 0.250000 0.878519
vt 0.314943 0.721731
vt 1.000000 0.500000
vt 0.693462 0.656788
vt 0.693462 0.564943
vt 0.628519 0.500000
vt 0.536675 0.721731
vt 0.625000 0.500000
vt 0.750000 0.375000
s 0
usemtl xmaterial
f 2/1/1 3/2/1 1/3/1
f 4/4/2 7/5/2 3/2/2
f 6/6/3 12/7/3 8/7/3
f 6/6/4 1/8/4 5/9/4
f 7/5/5 1/10/5 3/11/5
f 4/12/6 6/6/6 8/7/6
f 12/7/7 15/5/7 11/5/7
f 8/7/3 11/5/3 7/5/3
f 5/9/3 10/6/3 6/6/3
f 7/5/3 9/9/3 5/9/3
f 16/7/3 13/9/3 15/5/3
f 9/9/8 14/6/8 10/6/8
f 11/5/9 13/9/9 9/9/9
f 10/6/10 16/7/10 12/7/10
f 18/13/11 19/14/11 17/15/11
f 20/16/12 21/17/12 19/14/12
f 22/18/13 23/19/13 21/17/13
f 23/19/14 26/20/14 25/21/14
f 26/20/15 27/22/15 25/21/15
f 27/22/16 30/23/16 29/24/16
f 30/25/4 26/26/4 22/27/4
f 30/23/17 31/28/17 29/24/17
f 32/29/18 17/30/18 31/28/18
f 23/31/2 27/32/2 31/33/2
f 34/34/19 35/35/19 33/36/19
f 36/37/20 37/38/20 35/35/20
f 38/39/21 39/40/21 37/38/21
f 39/40/22 42/41/22 41/42/22
f 41/42/23 44/43/23 43/44/23
f 44/43/24 45/45/24 43/44/24
f 46/46/4 42/47/4 38/48/4
f 45/45/25 48/49/25 47/50/25
f 48/49/26 33/51/26 47/50/26
f 39/52/2 43/53/2 47/54/2
f 50/55/1 51/56/1 49/57/1
f 52/58/2 55/59/2 51/56/2
f 56/60/3 53/61/3 55/59/3
f 54/62/4 49/63/4 53/61/4
f 55/59/5 49/64/5 51/12/5
f 52/65/6 54/62/6 56/60/6
f 2/1/1 4/4/1 3/2/1
f 4/4/2 8/7/2 7/5/2
f 6/6/3 10/6/3 12/7/3
f 6/6/4 2/66/4 1/8/4
f 7/5/5 5/9/5 1/10/5
f 4/12/6 2/64/6 6/6/6
f 12/7/7 16/7/7 15/5/7
f 8/7/3 12/7/3 11/5/3
f 5/9/3 9/9/3 10/6/3
f 7/5/3 11/5/3 9/9/3
f 16/7/3 14/6/3 13/9/3
f 9/9/8 13/9/8 14/6/8
f 11/5/9 15/5/9 13/9/9
f 10/6/10 14/6/10 16/7/10
f 18/13/11 20/16/11 19/14/11
f 20/16/12 22/18/12 21/17/12
f 22/18/13 24/67/13 23/19/13
f 23/19/14 24/67/14 26/20/14
f 26/20/15 28/68/15 27/22/15
f 27/22/16 28/68/16 30/23/16
f 22/27/4 20/69/4 18/70/4
f 18/70/4 32/71/4 30/25/4
f 30/25/4 28/72/4 26/26/4
f 26/26/4 24/73/4 22/27/4
f 22/27/4 18/70/4 30/25/4
f 30/23/17 32/29/17 31/28/17
f 32/29/18 18/74/18 17/30/18
f 31/33/2 17/53/2 19/75/2
f 19/75/2 21/76/2 23/31/2
f 23/31/2 25/77/2 27/32/2
f 27/32/2 29/78/2 31/33/2
f 31/33/2 19/75/2 23/31/2
f 34/34/19 36/37/19 35/35/19
f 36/37/20 38/39/20 37/38/20
f 38/39/21 40/79/21 39/40/21
f 39/40/22 40/79/22 42/41/22
f 41/42/23 42/41/23 44/43/23
f 44/43/24 46/80/24 45/45/24
f 38/48/4 36/81/4 34/82/4
f 34/82/4 48/83/4 46/46/4
f 46/46/4 44/84/4 42/47/4
f 42/47/4 40/85/4 38/48/4
f 38/48/4 34/82/4 46/46/4
f 45/45/25 46/80/25 48/49/25
f 48/49/26 34/86/26 33/51/26
f 47/54/2 33/87/2 35/88/2
f 35/88/2 37/89/2 39/52/2
f 39/52/2 41/75/2 43/53/2
f 43/53/2 45/90/2 47/54/2
f 47/54/2 35/88/2 39/52/2
f 50/55/1 52/58/1 51/56/1
f 52/58/2 56/60/2 55/59/2
f 56/60/3 54/62/3 53/61/3
f 54/62/4 50/91/4 49/63/4
f 55/59/5 53/61/5 49/64/5
f 52/65/6 50/92/6 54/62/6
