# Blender 4.0.1
# www.blender.org
mtllib test_cube.mtl
o Cube.006
v 1.907932 -0.873408 0.460338
v 1.884587 0.067921 0.478696
v 1.852118 -0.802082 -0.447249
v 1.907932 0.047269 -0.460338
v 2.117746 -0.801800 0.436872
v 2.115180 -0.026438 0.425570
v 2.036253 -0.802082 -0.447249
v 2.092068 0.047269 -0.460338
v 1.907932 -0.873408 0.000000
v 1.907932 0.126361 0.000000
v 2.129154 -0.920640 -0.009862
v 2.108946 0.055753 -0.067044
v 1.729117 -0.633531 -0.332831
v 1.703294 0.070544 -0.566057
v 1.920241 -0.827114 -0.987682
v 1.977932 -0.209164 -1.217523
v 1.890311 -0.571683 -0.317631
v 1.838530 0.084631 -0.521265
v 2.055477 -0.813027 -0.942890
v 2.113168 -0.195077 -1.172732
v 1.846279 -0.755840 -0.648106
v 1.848972 0.000361 -0.925129
v 2.010520 -0.775856 -0.588009
v 1.984208 0.014448 -0.880338
v 1.954319 -1.129930 -1.657916
v 2.167586 -0.485756 -1.037407
v 1.544191 -0.545962 -2.123474
v 1.760366 0.099487 -1.721953
v 2.131970 -1.063371 -1.742450
v 2.275949 -0.339109 -1.219071
v 1.695127 -0.548852 -2.239513
v 1.915545 0.127392 -1.774573
v 1.762173 -0.824505 -1.931042
v 1.921321 0.026444 -1.253652
v 1.928834 -0.862302 -2.021800
v 2.128525 0.048659 -1.473700
v 2.084778 -0.902397 1.040106
v 2.052619 -0.112067 1.171265
v 1.990283 -0.831856 0.425443
v 1.878324 0.119990 0.448604
v 2.189540 -0.817073 0.879013
v 2.206963 -0.140498 0.969066
v 2.124951 -0.773242 0.502166
v 2.042707 0.132049 0.450180
v 1.904391 -0.849291 1.397036
v 2.034995 -0.810045 2.177334
v 1.893362 -0.468533 1.275197
v 2.004089 -0.310126 2.183290
v 2.016434 -0.814431 1.403832
v 2.164987 -0.794427 2.056428
v 2.004610 -0.577200 1.330858
v 2.151122 -0.518312 2.134893
v 1.808380 -0.505619 1.161975
v 1.843967 -0.320538 2.149169
v 1.785012 0.103606 1.053814
v 1.918902 0.191956 2.105666
v 1.923886 -0.477218 1.171463
v 1.978398 -0.320944 2.032033
v 2.041003 0.066777 1.171432
v 2.057788 0.066029 2.025421
v 1.583959 -0.026108 1.087255
v 1.698831 0.231323 1.011521
v 1.587157 -0.038402 0.547667
v 1.709436 0.199008 0.604496
v 2.097358 -0.288871 1.264106
v 1.923730 0.256697 0.894981
v 2.003316 -0.057509 0.511256
v 1.941324 0.122105 0.689078
v 1.796223 -0.029890 0.463662
v 2.117614 -0.039416 -1.404563
v 1.831932 -0.143267 1.231695
v 2.036131 0.200523 -1.357209
v 2.056365 -0.022335 -0.855968
v 2.036808 0.170291 -0.820001
v 1.711021 -0.079774 -1.348827
v 1.927611 0.223488 -1.200596
v 1.718095 -0.106071 -0.642414
v 1.809213 0.100267 -0.864846
v 1.972305 -0.022150 -0.587452
v 1.886782 -0.077976 -1.562261
v 1.814261 -0.525990 -0.459723
v 1.756202 0.133136 -0.415439
v 1.846299 -0.395971 -0.660912
v 1.858802 0.110098 -0.682209
v 2.006308 -0.544037 -0.394638
v 1.928768 0.146231 -0.343088
v 2.080714 -0.346451 -0.543318
v 2.098945 0.116763 -0.527332
v 2.008033 -0.301337 -0.715344
v 2.024502 0.119262 -0.714292
v 1.933593 0.525991 -0.410794
v 2.008347 0.513951 -0.637103
v 2.088913 0.590780 -0.523456
vn -0.9887 0.0670 0.1341
vn -0.0000 -0.0154 -0.9999
vn 0.9996 0.0218 0.0197
vn 0.1061 0.0148 0.9942
vn 0.3230 -0.9464 -0.0000
vn 0.3714 0.9166 0.1482
vn 0.3210 0.9464 -0.0342
vn -0.0000 -0.9875 -0.1575
vn 0.9786 0.0082 -0.2056
vn -0.9997 -0.0248 -0.0000
vn -0.9777 -0.0692 -0.1984
vn 0.3270 -0.3561 -0.8754
vn 0.9401 0.1453 0.3082
vn -0.1949 0.2766 0.9410
vn 0.2860 -0.8527 0.4371
vn -0.0340 0.9782 -0.2050
vn 0.0963 0.8287 -0.5514
vn -0.1785 -0.9701 0.1647
vn 0.9901 0.0764 0.1174
vn -0.9449 -0.1097 -0.3086
vn -0.7533 -0.1466 0.6412
vn -0.4928 0.5726 -0.6552
vn 0.8438 0.1285 -0.5211
vn 0.5070 -0.6791 0.5308
vn -0.4448 -0.7361 -0.5102
vn 0.3678 0.6041 0.7070
vn 0.0952 0.9775 0.1884
vn -0.4336 -0.7167 -0.5462
vn 0.7799 0.1615 -0.6047
vn -0.8866 -0.1750 0.4281
vn -0.9874 -0.0641 0.1444
vn 0.4966 -0.0047 -0.8680
vn 0.9856 -0.0029 -0.1693
vn 0.8560 -0.0898 0.5091
vn 0.4739 -0.8636 -0.1720
vn 0.5053 0.8195 0.2705
vn -0.9928 0.0095 0.1194
vn 0.7343 0.6479 -0.2026
vn 0.9839 -0.0060 -0.1788
vn 0.2972 -0.9548 -0.0017
vn 0.1813 -0.2950 -0.9382
vn 0.6821 -0.1680 0.7117
vn -0.9986 -0.0309 0.0418
vn 0.1892 0.9762 -0.1061
vn 0.9773 -0.2104 -0.0237
vn 0.2219 -0.9598 0.1719
vn 0.1219 -0.1690 -0.9781
vn 0.4461 -0.0763 0.8917
vn -0.9147 0.4039 -0.0146
vn 0.2448 0.7235 -0.6454
vn 0.9410 0.3382 -0.0136
vn -0.3160 0.3948 0.8627
vn -0.0990 -0.9851 -0.1408
vn 0.9481 0.3029 0.0964
vn 0.4274 0.7730 -0.4688
vn 0.0499 -0.9985 0.0230
vn 0.2322 0.5947 0.7697
vn -0.3573 0.3874 -0.8499
vn -0.3667 0.7522 0.5475
vn -0.9043 0.4262 0.0249
vn 0.4952 0.3270 -0.8049
vn 0.3080 -0.9510 0.0274
vn -0.3264 0.9188 0.2221
vn 0.1341 -0.9899 0.0458
vn -0.5873 0.6531 -0.4781
vn 0.9535 0.0411 0.2985
vn -0.9766 -0.0724 -0.2023
vn -0.3016 -0.0326 -0.9529
vn 0.8594 0.0586 0.5080
vn -0.3281 -0.1070 0.9386
vn 0.1283 -0.7911 -0.5980
vn -0.1966 0.1804 -0.9637
vn -0.5025 0.8385 -0.2106
vn 0.9173 -0.0349 -0.3967
vn -0.8798 0.3604 -0.3098
vn -0.3920 0.1663 0.9048
vn 0.9289 0.0227 -0.3696
vn 0.7388 0.1092 0.6650
vn -1.0000 -0.0000 -0.0000
vn 0.9999 0.0031 -0.0121
vn 0.2192 -0.0136 0.9756
vn -0.1917 -0.9497 0.2477
vn 0.4011 0.9067 0.1303
vn -0.0000 0.9856 -0.1693
vn -0.2131 -0.9535 -0.2132
vn 0.9970 -0.0662 -0.0414
vn -0.9988 -0.0000 -0.0487
vn -0.9269 -0.0517 -0.3717
vn 0.9234 0.1783 0.3398
vn -0.3280 0.2862 0.9003
vn -0.2814 -0.8218 0.4954
vn 0.0661 -0.9915 0.1122
vn 0.9269 0.0517 0.3717
vn -0.9261 -0.1488 -0.3466
vn -0.9466 -0.0729 0.3140
vn -0.3511 0.6055 -0.7142
vn 0.9178 0.0960 -0.3853
vn 0.9002 -0.3581 0.2479
vn 0.0192 -0.8048 -0.5933
vn 0.5861 0.5377 0.6061
vn -0.1109 0.9755 0.1903
vn -0.4537 -0.7112 -0.5369
vn 0.8251 0.1473 -0.5455
vn -0.8458 -0.1974 0.4956
vn -0.9732 -0.1193 0.1964
vn 0.0077 0.0252 -0.9997
vn 0.9612 0.0720 -0.2664
vn 0.7882 -0.0694 0.6114
vn 0.4422 -0.8791 -0.1780
vn -0.0724 0.9444 0.3207
vn -0.9838 -0.0628 0.1678
vn 0.7817 0.5953 -0.1860
vn 0.9681 0.1122 -0.2238
vn 0.1218 -0.9926 0.0027
vn 0.1459 -0.2842 -0.9476
vn 0.3238 0.0087 0.9461
vn -0.9818 0.1531 0.1121
vn 0.6677 0.7443 -0.0125
vn 0.9793 -0.2013 -0.0194
vn 0.1435 -0.9753 0.1680
vn 0.4055 -0.0874 -0.9099
vn 0.6566 -0.0320 0.7536
vn -0.8815 0.4684 -0.0602
vn 0.4420 0.5856 -0.6794
vn 0.9644 0.2515 -0.0820
vn -0.4503 -0.8677 -0.2104
vn 0.9950 0.1002 0.0044
vn -0.1537 0.9847 -0.0822
vn -0.3665 -0.9227 -0.1192
vn 0.3294 0.5627 0.7582
vn -0.3429 0.7682 0.5406
vn -0.7978 0.5997 -0.0612
vn -0.0345 -0.9987 -0.0368
vn 0.2802 0.9585 0.0536
vn 0.1396 -0.9892 0.0444
vn -0.5658 0.6637 -0.4893
vn -0.9331 0.0079 -0.3596
vn -0.1906 0.0099 -0.9816
vn 0.7294 -0.0522 0.6821
vn -0.3787 -0.0952 0.9206
vn 0.3180 -0.8186 -0.4784
vn 0.6788 -0.5873 -0.4408
vn 0.9287 -0.0238 -0.3701
vn -0.8487 0.3875 -0.3599
vn 0.7531 0.1558 -0.6392
vn 0.5856 0.0058 0.8106
vt 0.333311 0.258340
vt 0.851660 0.557395
vt 0.573112 0.149604
vt 0.411894 0.847948
vt 0.450912 0.230341
vt 0.004329 0.525398
vt 0.663608 0.687552
vt 0.144351 0.433082
vt 0.322958 0.232269
vt 0.890908 0.480104
vt 0.116837 0.401365
vt 0.648646 0.099895
vt 0.266739 0.628249
vt 0.635591 0.080136
vt 0.119211 0.404957
vt 0.632989 0.089731
vt 0.775744 0.338666
vt 0.860851 0.556483
vt 0.721290 0.639570
vt 0.274707 0.934627
vt 0.402791 0.868352
vt 0.110020 0.405869
vt 0.358038 0.702707
vt 0.565554 0.220834
vt 0.350199 0.262340
vt 0.733534 0.580692
vt 0.959322 0.229037
vt 0.751807 0.710910
vt 0.478408 0.369582
vt 0.828419 0.250683
vt 0.327635 0.751781
vt 0.009055 0.333565
vt 0.350199 0.894438
vt 0.478408 0.701989
vt 0.009055 0.710841
vt 0.358038 1.055761
vt 0.327635 0.820574
vt 0.751807 1.029677
vt 0.733534 1.226034
vt 1.127303 1.199950
vt 0.565554 1.092188
vt 0.828419 0.859441
vt 0.270273 0.263601
vt 0.266030 0.697600
vt -0.241656 0.394433
vt 0.112815 0.393075
vt 1.007901 0.672784
vt 1.138742 0.151405
vt 0.661676 0.245848
vt 1.138742 1.425677
vt 1.222387 1.094518
vt 0.721528 1.385972
vt 0.661676 1.556888
vt 0.270273 1.514259
vt 1.222387 0.422711
vt 1.476876 0.491591
vt 0.630468 1.440765
vt 0.644033 1.196089
vt 1.007901 1.230163
vt 0.112815 1.659148
vt -0.241656 1.604644
vt 0.630468 0.710707
vt 0.721528 0.120143
vt 0.644033 0.663292
vt -0.089579 0.637236
vt 0.344745 0.218072
vt -0.013199 0.176993
vt 0.769495 0.218072
vt 0.922141 0.779394
vt 1.161611 0.252205
vt 1.400404 0.620679
vt 1.349676 0.226681
vt 1.044639 0.176993
vt 1.161611 0.224587
vt 1.044639 -0.088678
vt 0.769495 0.269266
vt 0.922141 0.254861
vt 0.951002 -0.165058
vt 1.400404 -0.047308
vt -0.221054 0.207919
vt -0.678923 0.521897
vt -0.150102 0.429650
vt 0.809696 -0.754402
vt 0.811213 -0.257995
vt 0.487291 -0.225581
vt 1.237812 0.400662
vt 0.845639 0.228219
vt 0.811213 0.366369
vt 0.845639 -0.300491
vt 0.899684 -0.750933
vt 0.519403 -0.296533
vt 0.519403 0.207919
vt 0.487291 0.429650
vt 0.899684 0.230774
vt 1.278183 0.239869
vt -0.659053 0.515834
vt -0.021182 0.762831
vt -0.084169 0.408054
vt 0.561656 -0.709198
vt 0.917179 -0.165155
vt 0.171806 -0.096661
vt 0.734889 -0.666319
vt 0.576168 -0.165173
vt 0.343468 -0.734532
vt 0.239846 -0.159647
vt 0.171806 0.762831
vt 0.576168 0.424593
vt 0.239846 0.408054
vt 0.561656 0.814281
vt 0.734889 0.515598
vt 0.966051 0.740948
vt -0.079127 -0.072032
vt -0.404290 0.198090
vt -0.413603 -0.116135
vt 0.204450 0.685091
vt 0.626940 0.773603
vt 0.807443 0.669007
vt 0.626940 0.115740
vt 1.081267 -0.219122
vt 0.807443 0.219294
vt 0.308423 0.619066
vt -0.079127 0.837206
vt -0.413603 0.687293
vt 0.308423 -0.200248
vt 0.204450 0.247010
vt 0.902991 1.307379
vt 0.961906 1.015486
vt 1.140245 1.334955
vt -0.048248 0.164996
vt 0.575713 -0.004166
vt 0.575713 0.851982
vt 1.081267 0.534275
vt -0.404290 0.680134
vt -0.048248 0.818387
vt 0.717150 0.859117
vt 0.242272 1.020655
vt -0.023036 0.891124
vt -0.043635 1.302498
vt 0.468130 0.657088
vt 0.902991 0.819270
vt 1.140245 0.679543
vt 0.468130 1.426789
vt 0.904964 0.994540
vt 0.587012 1.216177
vt 0.961906 0.689490
vt 0.904964 0.801664
vt 0.717150 0.689598
vt 0.087920 0.780027
vt 0.350258 0.471906
vt 0.256971 0.396191
vt 0.386662 0.766612
vt 0.821177 0.527016
vt 1.032805 0.500744
vt 0.590383 0.787653
vt 0.816157 0.385681
vt 0.821177 0.933594
vt 0.816157 0.746834
vt 0.256971 0.784735
vt 0.869131 0.771948
vt 0.822094 1.001792
vt 1.056677 0.821849
vt 0.822094 0.888031
vt 0.604431 0.756242
vt 0.386662 0.914298
vt 0.604431 1.008804
vt 1.056677 1.046533
vt 1.085889 0.770493
vt 0.653716 0.743288
vt 0.858477 0.552890
vt 0.398320 0.805557
vt 0.361894 0.895373
vt 0.806427 0.278549
vt 0.056709 0.433461
vt 0.414268 0.851540
vt 1.127303 0.588895
vt -0.066133 0.743577
vt -0.066133 0.846658
vt 0.959322 1.066104
vt 1.476876 1.179846
vt 0.266030 1.416050
vt 0.331257 0.772372
vt 0.443503 0.772372
vt 0.951002 0.637236
vt 1.349676 0.005133
vt 0.443503 0.255778
vt -0.675454 0.230774
vt 1.237812 -0.726218
vt 1.278183 -0.680525
vt 0.809696 0.521897
vt -0.633719 0.814281
vt 0.966051 -0.662468
vt 0.917179 0.741384
vt 0.343468 0.515834
vt 0.350258 0.901896
vt 1.032805 0.833416
vt 0.087920 0.758947
s 0
usemtl stone_surface_001
f 9/1/1 4/2/1 3/3/1
f 4/4/2 7/5/2 3/6/2
f 12/7/3 5/8/3 11/9/3
f 6/10/4 1/11/4 5/12/4
f 9/13/5 5/14/5 1/15/5
f 10/13/6 6/16/6 12/17/6
f 8/18/7 10/13/7 12/17/7
f 7/19/8 9/13/8 3/20/8
f 7/3/9 12/7/9 11/9/9
f 2/21/10 9/1/10 1/22/10
f 22/23/11 15/24/11 21/25/11
f 16/26/12 19/27/12 15/24/12
f 24/28/13 17/29/13 23/30/13
f 18/31/14 13/32/14 17/29/14
f 21/33/15 17/34/15 13/35/15
f 22/36/16 18/37/16 24/38/16
f 16/39/17 24/38/17 20/40/17
f 15/41/18 23/42/18 21/33/18
f 19/27/19 24/28/19 23/30/19
f 13/32/20 22/23/20 21/25/20
f 33/43/21 28/44/21 27/45/21
f 28/44/22 31/46/22 27/45/22
f 36/47/23 29/48/23 35/49/23
f 29/50/24 26/51/24 25/52/24
f 35/53/25 25/52/25 33/54/25
f 36/47/26 26/55/26 30/56/26
f 32/57/27 34/58/27 36/59/27
f 31/60/28 33/54/28 27/61/28
f 32/62/29 35/49/29 31/46/29
f 25/63/30 34/64/30 33/43/30
f 38/65/31 39/66/31 37/67/31
f 39/68/32 44/69/32 43/70/32
f 43/70/33 42/71/33 41/72/33
f 42/71/34 37/73/34 41/72/34
f 43/74/35 37/75/35 39/76/35
f 44/77/36 38/78/36 42/79/36
f 45/80/37 48/81/37 47/82/37
f 48/83/38 51/84/38 47/85/38
f 52/86/39 49/87/39 51/88/39
f 49/89/40 46/90/40 45/91/40
f 51/88/41 45/92/41 47/93/41
f 52/86/42 46/94/42 50/95/42
f 54/96/43 55/97/43 53/98/43
f 56/99/44 59/100/44 55/101/44
f 59/100/45 58/102/45 57/103/45
f 57/103/46 54/104/46 53/105/46
f 55/106/47 57/107/47 53/108/47
f 56/109/48 58/110/48 60/111/48
f 62/112/49 63/113/49 61/114/49
f 69/115/50 68/116/50 67/117/50
f 68/118/51 65/119/51 67/120/51
f 71/121/52 62/122/52 61/123/52
f 67/120/53 71/124/53 69/125/53
f 72/126/54 73/127/54 70/128/54
f 64/129/55 66/130/55 68/118/55
f 69/125/56 61/114/56 63/113/56
f 66/131/57 71/121/57 65/132/57
f 63/133/58 64/134/58 69/115/58
f 79/135/59 78/136/59 77/137/59
f 78/136/60 75/138/60 77/137/60
f 80/139/61 72/140/61 70/141/61
f 77/137/62 80/142/62 79/135/62
f 74/143/63 76/144/63 78/136/63
f 73/127/64 80/142/64 70/128/64
f 76/144/65 80/142/65 75/138/65
f 73/145/66 74/146/66 79/147/66
f 82/148/67 83/149/67 81/150/67
f 84/151/68 89/152/68 83/149/68
f 87/153/69 86/154/69 85/155/69
f 86/154/70 81/150/70 85/155/70
f 89/156/71 85/157/71 81/158/71
f 90/159/72 84/151/72 92/160/72
f 93/161/73 92/162/73 91/163/73
f 90/159/74 87/153/74 89/152/74
f 84/164/75 91/163/75 92/162/75
f 82/148/76 86/154/76 91/165/76
f 90/159/77 93/166/77 88/167/77
f 88/167/78 91/165/78 86/154/78
f 9/1/79 10/168/79 4/2/79
f 4/4/2 8/169/2 7/5/2
f 12/7/80 6/170/80 5/8/80
f 6/10/81 2/171/81 1/11/81
f 9/13/82 11/172/82 5/14/82
f 10/13/83 2/173/83 6/16/83
f 8/18/84 4/174/84 10/13/84
f 7/19/85 11/172/85 9/13/85
f 7/3/86 8/2/86 12/7/86
f 2/21/87 10/168/87 9/1/87
f 22/23/88 16/26/88 15/24/88
f 16/26/12 20/175/12 19/27/12
f 24/28/89 18/31/89 17/29/89
f 18/31/90 14/176/90 13/32/90
f 21/33/91 23/42/91 17/34/91
f 22/36/16 14/177/16 18/37/16
f 16/39/17 22/36/17 24/38/17
f 15/41/92 19/178/92 23/42/92
f 19/27/93 20/175/93 24/28/93
f 13/32/94 14/176/94 22/23/94
f 33/43/95 34/64/95 28/44/95
f 28/44/96 32/62/96 31/46/96
f 36/47/97 30/56/97 29/48/97
f 29/50/98 30/179/98 26/51/98
f 35/53/99 29/50/99 25/52/99
f 36/47/100 34/64/100 26/55/100
f 32/57/101 28/180/101 34/58/101
f 31/60/102 35/53/102 33/54/102
f 32/62/103 36/47/103 35/49/103
f 25/63/104 26/55/104 34/64/104
f 38/65/105 40/181/105 39/66/105
f 39/68/106 40/182/106 44/69/106
f 43/70/107 44/69/107 42/71/107
f 42/71/108 38/183/108 37/73/108
f 43/74/109 41/184/109 37/75/109
f 44/77/110 40/185/110 38/78/110
f 45/80/111 46/186/111 48/81/111
f 48/83/112 52/187/112 51/84/112
f 52/86/113 50/95/113 49/87/113
f 49/89/114 50/188/114 46/90/114
f 51/88/115 49/87/115 45/92/115
f 52/86/116 48/189/116 46/94/116
f 54/96/117 56/190/117 55/97/117
f 56/99/118 60/191/118 59/100/118
f 59/100/119 60/191/119 58/102/119
f 57/103/120 58/102/120 54/104/120
f 55/106/121 59/192/121 57/107/121
f 56/109/122 54/193/122 58/110/122
f 62/112/123 64/129/123 63/113/123
f 69/115/124 64/134/124 68/116/124
f 68/118/125 66/130/125 65/119/125
f 67/120/126 65/119/126 71/124/126
f 72/126/127 74/143/127 73/127/127
f 64/129/128 62/112/128 66/130/128
f 69/125/129 71/124/129 61/114/129
f 66/131/130 62/122/130 71/121/130
f 79/135/131 74/143/131 78/136/131
f 78/136/132 76/144/132 75/138/132
f 77/137/133 75/138/133 80/142/133
f 74/143/134 72/126/134 76/144/134
f 73/127/135 79/135/135 80/142/135
f 76/144/136 72/126/136 80/142/136
f 82/148/137 84/151/137 83/149/137
f 84/151/138 90/159/138 89/152/138
f 87/153/139 88/167/139 86/154/139
f 86/154/140 82/148/140 81/150/140
f 81/158/141 83/194/141 89/156/141
f 89/156/142 87/195/142 85/157/142
f 90/159/143 88/167/143 87/153/143
f 84/164/144 82/196/144 91/163/144
f 90/159/145 92/160/145 93/166/145
f 88/167/146 93/166/146 91/165/146
