# Blender 4.0.1
# www.blender.org
mtllib tile_002.mtl
o Cube.001
v -0.987835 -1.991462 0.991578
v -0.948756 -0.027938 0.956583
v -0.942005 -1.947780 -0.879217
v 1.019182 -1.986542 1.083833
v 1.009248 -0.053636 1.010448
v 0.920877 -1.968467 -1.016560
v -0.953097 -1.018168 1.047554
v -1.009169 -1.032246 -0.035729
v 0.955068 -2.008040 -0.058891
v 0.949385 -1.035128 0.960378
v -0.049965 -1.946396 1.025771
v -0.046255 0.015429 0.989486
v -1.037971 -2.059675 -0.010818
v -0.034713 -2.018155 -0.970300
v 0.955966 -0.997485 -0.004282
v 0.015187 -0.947796 0.016644
v -0.008467 -1.999005 -0.006943
v 0.015187 -0.947796 1.016644
v -1.000949 -0.507327 0.985449
v -0.961376 -1.486637 -0.492747
v 1.022491 -2.011843 -0.411155
v 1.006529 -1.510664 1.002555
v 0.498636 -2.001769 0.998754
v -0.457676 -0.047550 1.050182
v -0.988951 -1.999092 0.510795
v -0.473036 -1.970992 -0.957431
v 0.962801 -0.519000 0.482344
v -1.014767 -1.520333 0.965032
v -0.949831 -0.516424 0.493931
v 1.006286 -2.060469 0.547269
v 1.004316 -0.539683 1.058135
v -0.464440 -1.987745 1.016745
v 0.468760 -0.055720 0.931038
v -1.042873 -1.981165 -0.518205
v 0.489019 -2.018919 -0.914402
v 0.968267 -1.517772 -0.422803
v 0.035560 -0.487745 0.516745
v -0.042873 -1.481165 -0.518205
v 0.459577 -0.990686 0.044492
v -0.471145 -0.987743 -0.034129
v -0.040423 -1.990686 0.544492
v 0.028855 -1.987743 -0.534129
v -0.563781 -2.068334 -0.022204
v 0.491328 -1.970620 -0.010730
v -0.476922 -1.031755 1.006691
v 0.564776 -0.985040 1.072629
v -0.005009 -1.487736 1.007009
v 0.002588 -0.494189 1.000557
v 0.943906 -1.452056 0.526937
v 0.990580 -1.473858 0.005138
v 1.037503 -1.010883 0.519584
v -1.000407 -1.498457 0.002385
v -1.036644 -1.508759 0.545530
v -0.964244 -1.064368 0.487558
v 0.551171 -0.468485 0.951175
v 0.493935 -1.525822 1.014737
v -0.488937 -1.483253 0.969520
v 0.505625 -2.010457 -0.490100
v -0.550501 -2.020149 -0.491109
v -0.504539 -2.024808 0.535224
v -0.563781 -1.568334 -0.522204
v 0.491328 -1.470620 -0.510730
v 0.523078 -0.531755 0.506691
v -0.435224 -0.485040 0.572629
v 0.499866 -1.999976 0.499981
v -0.444390 -0.450722 0.942446
v -0.999171 -0.250000 1.001223
v -0.965283 -1.708356 -0.712572
v 1.030710 -2.069704 -0.711793
v 1.063182 -1.737617 0.954405
v 0.810383 -1.959056 1.039193
v -0.717400 -0.030561 0.965223
v -0.968201 -1.960609 0.757751
v -0.773869 -1.914594 -0.933968
v 0.955049 -0.251570 0.729060
v -1.049152 -1.252958 0.971988
v -0.924374 -0.768343 0.261816
v 0.963772 -1.950548 0.271713
v 1.000614 -0.727778 0.999043
v -0.186580 -1.971963 1.005511
v 0.242006 -0.034669 0.966983
v -0.965592 -1.979909 -0.198822
v 0.207136 -1.969159 -0.916077
v 0.998521 -1.300955 -0.250146
v 0.051171 -0.218485 0.701175
v -0.006065 -1.275822 -0.235263
v 0.761063 -0.983253 -0.030480
v -0.244375 -1.010457 0.009900
v -0.011390 -1.935893 0.729783
v 0.038255 -2.054507 -0.205651
v -0.690909 -2.009649 0.006954
v 0.251719 -2.006250 -0.086648
v -0.755201 -0.942017 1.061197
v 0.252827 -1.000613 1.012899
v -0.046273 -1.743151 0.983032
v -0.002971 -0.751185 0.998524
v 0.984989 -1.297997 0.779409
v 0.998323 -1.281051 0.049838
v 1.020505 -0.931258 0.214492
v -0.947526 -1.262652 -0.000609
v -0.967985 -1.313971 0.745742
v -0.933488 -0.980435 0.780782
v -1.042224 -0.759421 0.966373
v -1.009059 -1.258403 -0.229617
v 1.004620 -2.007584 -0.267650
v 1.031448 -1.265651 0.949996
v 0.264871 -1.972112 0.966546
v -0.243114 -0.060026 0.998584
v -0.954899 -2.003347 0.194242
v -0.238875 -1.960708 -0.959908
v 1.017627 -0.710450 0.187587
v -0.961384 -1.782625 0.961795
v -0.959665 -0.276726 0.725293
v 1.001469 -2.069124 0.803052
v 0.996191 -0.272570 0.947512
v -0.740998 -1.990552 1.035409
v 0.753093 -0.103229 1.001454
v -1.030384 -1.972675 -0.739722
v 0.784341 -1.948815 -1.003765
v 1.022220 -1.680758 -0.681603
v 0.031799 -0.710609 0.257751
v -0.049152 -1.752958 -0.778012
v 0.213772 -0.950548 0.021713
v -0.749386 -0.977778 -0.000957
v -0.005568 -2.001629 0.177411
v -0.049709 -2.001039 -0.752657
v -0.280005 -1.928823 -0.035374
v 0.708802 -1.988590 0.033933
v -0.241528 -0.981775 0.960766
v 0.765938 -1.029649 1.068772
v 0.004956 -1.242842 1.002197
v 0.085794 -0.227064 0.961639
v 1.009745 -1.747046 0.245095
v 0.963996 -1.779631 0.030541
v 0.917397 -0.986598 0.791605
v -0.997375 -1.785218 -0.030163
v -0.934968 -1.738572 0.324916
v -0.988963 -0.986796 0.272983
v -0.963419 -0.740905 0.468892
v -1.012019 -0.743698 0.758149
v -0.978292 -0.512167 0.665280
v -0.996640 -1.243169 0.233449
v -1.021997 -1.514646 0.248984
v -0.997702 -1.252890 0.473474
v -1.000042 -1.741059 -0.471700
v -0.995891 -1.760404 -0.181650
v -1.024370 -1.510040 -0.220125
v 0.981998 -0.707381 0.776630
v 1.008597 -0.841237 0.483776
v 0.975677 -0.465767 0.798743
v 1.052571 -1.210631 0.540285
v 0.982834 -1.494049 0.262014
v 1.054076 -1.266778 0.224172
v 0.975873 -1.757014 0.747510
v 1.003239 -1.771165 0.454407
v 0.980977 -1.447307 0.785361
v 0.247135 -0.497084 1.001393
v 0.744172 -0.517411 0.999089
v 0.467636 -0.787406 1.026925
v 0.557033 -0.274863 1.015878
v 0.316947 -1.479167 0.969163
v 0.738880 -1.493281 0.998618
v 0.471052 -1.804994 1.035293
v 0.507685 -1.233565 1.035463
v -0.738106 -1.532639 1.061355
v -0.239526 -1.505985 0.994134
v -0.512402 -1.762962 1.011531
v -0.555022 -1.244017 1.024858
v 0.504803 -2.010731 -0.245648
v 0.493824 -1.997984 -0.763883
v 0.237907 -2.019713 -0.475792
v 0.750645 -2.003637 -0.498535
v -0.504954 -1.997314 -0.253165
v -0.457732 -1.921926 -0.750802
v -0.733161 -1.969242 -0.499092
v -0.239333 -1.965797 -0.501782
v -0.522779 -1.976383 0.740685
v -0.444559 -1.990066 0.207845
v -0.756204 -2.009397 0.514153
v -0.170008 -1.997319 0.557432
v -0.436580 -1.221963 -0.244489
v -0.465592 -1.729909 -0.698822
v -0.261390 -1.435893 -0.520217
v -0.711745 -1.554507 -0.455651
v 0.559091 -1.259649 -0.243046
v 0.501719 -1.756250 -0.836648
v 0.744799 -1.442017 -0.438803
v 0.252827 -1.500613 -0.487101
v 0.453727 -0.243151 0.733032
v 0.497029 -0.751185 0.248524
v 0.734989 -0.547996 0.529409
v 0.248323 -0.531051 0.549838
v -0.422927 -0.209541 0.695636
v -0.447526 -0.762652 0.249391
v -0.217985 -0.563971 0.495742
v -0.683488 -0.480435 0.530782
v 0.461029 -2.002394 0.724412
v 0.529456 -2.058400 0.211596
v 0.189754 -2.033531 0.511574
v 0.746036 -2.004657 0.497439
v -0.742012 -0.497674 0.999183
v -0.237441 -0.496158 0.979930
v -0.491517 -0.772403 0.988756
v -0.505998 -0.256225 0.998768
v 0.932652 -1.753265 -0.224177
v 0.992511 -1.791606 -0.526011
v 1.023969 -1.509944 -0.264104
v -0.993788 -1.755900 0.495012
v -0.994041 -1.738384 0.761377
v -1.090786 -1.493390 0.733356
v -0.242213 -0.248818 1.069651
v -0.296772 -0.757144 1.086158
v -0.748835 -0.686990 1.062961
v 0.762209 -2.059159 0.288514
v 0.225573 -2.003210 0.221789
v 0.321189 -1.984924 0.722953
v -0.792224 -0.759421 0.216373
v -0.245380 -0.757584 0.232350
v -0.218552 -0.265651 0.699996
v 0.264871 -0.722112 0.216546
v 0.795101 -0.753348 0.194242
v 0.788616 -0.282625 0.711795
v 0.251469 -1.819124 -0.696948
v 0.783335 -1.745682 -0.767848
v 0.759002 -1.240552 -0.214591
v -0.780384 -1.722675 -0.739722
v -0.255568 -1.751629 -0.822589
v -0.299709 -1.251039 -0.252657
v -0.256707 -1.998527 0.260036
v -0.746485 -1.999714 0.255262
v -0.748609 -2.015675 0.751008
v -0.233436 -2.013587 -0.746438
v -0.813219 -1.965604 -0.711024
v -0.743849 -1.962711 -0.306660
v 0.759461 -2.005560 -0.731107
v 0.261384 -1.996346 -0.761062
v 0.247157 -2.043465 -0.249669
v -0.208149 -1.232657 0.991339
v -0.257553 -1.749690 0.960202
v -0.815916 -1.777078 0.930216
v 0.710810 -1.329558 1.034353
v 0.824734 -1.772830 1.013611
v 0.253996 -1.752567 1.017651
v 0.750537 -0.249206 0.988287
v 0.770898 -0.715813 0.953140
v 0.240361 -0.707379 0.977760
v 0.234901 -0.278672 0.984397
v 0.304429 -1.179684 1.004411
v -0.742990 -1.257506 1.003005
v 0.746161 -1.941069 -0.301470
v -0.257223 -1.999022 -0.260318
v -0.286728 -2.010021 0.744003
v -0.780005 -1.178823 -0.285374
v 0.208802 -1.238590 -0.216067
v 0.258472 -0.231775 0.710766
v -0.734062 -0.279649 0.818772
v 0.712987 -1.937096 0.749024
v -0.755832 -0.206801 0.981584
vn -0.9909 0.1158 -0.0679
vn 0.9445 0.0459 -0.3252
vn 0.0460 0.1868 0.9813
vn -0.4266 -0.9014 0.0750
vn 0.0379 0.5046 -0.8625
vn 0.0788 0.7926 -0.6047
vn 0.0285 0.6361 -0.7711
vn -0.0955 0.8177 -0.5677
vn 0.2617 -0.9643 0.0401
vn -0.2671 -0.9273 0.2623
vn -0.1353 -0.9788 -0.1537
vn -0.1011 -0.2671 0.9584
vn 0.0025 -0.0466 0.9989
vn -0.1253 0.0743 0.9893
vn 0.9757 -0.2188 0.0124
vn 0.9755 0.0461 -0.2150
vn 0.9606 -0.0212 -0.2770
vn -0.9425 0.1173 -0.3131
vn -0.9763 0.1551 0.1512
vn -0.9268 -0.3564 -0.1185
vn -0.9930 0.0093 0.1178
vn -0.9861 -0.0071 -0.1658
vn -0.9974 0.0112 -0.0708
vn -0.9530 0.2110 -0.2175
vn -0.9928 0.0881 -0.0811
vn -0.9706 0.1895 0.1485
vn -0.9817 0.1845 -0.0483
vn -0.9850 0.1708 0.0255
vn -0.9713 0.2190 0.0932
vn 0.8929 -0.1846 0.4107
vn 0.9853 0.1703 0.0116
vn 0.9955 0.0784 -0.0537
vn 0.9047 -0.4130 0.1048
vn 0.8901 -0.4115 0.1960
vn 0.9512 0.0330 -0.3069
vn 0.9961 0.0855 0.0217
vn 0.9951 0.0397 0.0910
vn 0.9894 -0.0322 -0.1413
vn 0.0868 -0.0098 0.9962
vn 0.1926 0.1787 0.9649
vn 0.1524 -0.0914 0.9841
vn -0.1165 -0.0742 0.9904
vn 0.0548 0.0689 0.9961
vn -0.0446 -0.1058 0.9934
vn 0.2109 0.0309 0.9770
vn 0.1892 0.1303 0.9732
vn 0.0944 0.0504 0.9943
vn 0.1197 -0.9686 0.2178
vn 0.0302 -0.9964 -0.0791
vn -0.2301 -0.9732 -0.0007
vn -0.1140 -0.9852 -0.1282
vn 0.1151 -0.9915 -0.0605
vn 0.0734 -0.9785 0.1929
vn 0.1745 -0.9812 0.0820
vn -0.0578 -0.9975 -0.0395
vn 0.0501 -0.9987 -0.0105
vn 0.1123 0.7207 -0.6841
vn -0.3357 0.6483 -0.6834
vn 0.2947 0.7894 -0.5385
vn 0.0601 0.5805 -0.8120
vn 0.1063 0.7369 -0.6676
vn 0.1231 0.5456 -0.8289
vn 0.0675 0.8519 -0.5193
vn -0.0908 0.8418 -0.5321
vn -0.0454 0.8657 -0.4985
vn 0.2338 0.8097 -0.5383
vn -0.0696 0.8072 -0.5861
vn -0.0097 0.7496 -0.6618
vn -0.1242 -0.9920 0.0235
vn 0.1038 -0.9904 -0.0908
vn 0.4750 -0.8418 0.2564
vn -0.3078 -0.0216 0.9512
vn -0.4510 0.1916 0.8717
vn -0.2508 -0.1764 0.9518
vn 0.9610 0.2528 0.1122
vn 0.9626 0.2163 0.1634
vn 0.9327 0.1359 -0.3341
vn -0.9939 -0.0267 -0.1066
vn -0.9998 -0.0199 0.0004
vn -0.9465 -0.1294 0.2955
vn -0.7853 0.5562 -0.2719
vn -0.7395 0.5344 -0.4094
vn -0.7921 0.4550 -0.4069
vn -0.9573 -0.1115 -0.2668
vn -0.9308 -0.3649 0.0231
vn -0.9080 -0.3288 0.2597
vn -0.9059 -0.1306 0.4029
vn -0.9291 0.2176 -0.2991
vn -0.9379 -0.0944 -0.3339
vn 0.9887 -0.0703 0.1320
vn 0.9926 0.1214 -0.0074
vn 0.9892 0.1460 -0.0090
vn 0.9326 -0.3239 0.1591
vn 0.9242 -0.3103 0.2227
vn 0.9199 0.2070 -0.3331
vn 0.9651 -0.1273 0.2288
vn 0.9544 0.2851 -0.0879
vn 0.9866 -0.0967 -0.1314
vn -0.2387 -0.3352 0.9114
vn -0.0777 -0.3413 0.9367
vn 0.3087 0.0591 0.9493
vn 0.1750 0.0777 0.9815
vn -0.2209 0.0693 0.9728
vn 0.2659 0.3110 0.9125
vn -0.1601 0.2449 0.9562
vn 0.2162 0.0795 0.9731
vn 0.3522 0.2874 0.8907
vn -0.0665 -0.9792 0.1916
vn -0.0015 -0.9302 -0.3670
vn 0.4278 -0.8439 -0.3237
vn -0.1813 -0.9834 0.0121
vn -0.0041 -0.9999 -0.0142
vn 0.1403 -0.9899 0.0217
vn -0.0901 -0.9948 -0.0470
vn -0.1329 -0.9446 0.3001
vn 0.1120 -0.9814 0.1560
vn 0.1234 0.7505 -0.6493
vn -0.0457 0.7842 -0.6188
vn -0.2867 0.6470 -0.7066
vn -0.1718 0.7480 -0.6411
vn -0.0570 0.7137 -0.6982
vn -0.0796 0.6582 -0.7486
vn -0.1281 0.7486 -0.6506
vn -0.0954 0.5663 -0.8187
vn -0.0865 0.5627 -0.8221
vn 0.1819 0.7401 -0.6474
vn 0.1828 0.6209 -0.7623
vn -0.0994 0.6585 -0.7460
vn -0.1730 0.8110 -0.5589
vn -0.1342 0.5705 -0.8103
vn -0.1884 0.7006 -0.6882
vn -0.1398 0.8224 -0.5515
vn -0.0500 0.6764 -0.7348
vn 0.1306 0.5435 -0.8292
vn -0.4888 0.6483 -0.5838
vn 0.0553 0.2809 -0.9581
vn 0.3210 0.7499 -0.5784
vn 0.3146 0.8314 -0.4580
vn 0.0324 0.7533 -0.6569
vn 0.1298 0.7517 -0.6467
vn 0.0448 0.6327 -0.7731
vn 0.2524 0.5810 -0.7738
vn 0.0243 0.7428 -0.6690
vn 0.1007 0.7613 -0.6405
vn 0.0833 0.7277 -0.6808
vn -0.3471 0.6613 -0.6650
vn 0.1478 0.6816 -0.7166
vn 0.1244 0.5869 -0.8001
vn -0.0329 0.5468 -0.8366
vn -0.1268 0.6093 -0.7827
vn 0.1686 0.7872 -0.5932
vn 0.1423 0.8238 -0.5488
vn -0.0147 -0.9940 -0.1082
vn 0.4427 -0.8935 0.0746
vn -0.0852 -0.9712 -0.2224
vn 0.0131 -0.9998 0.0148
vn 0.1286 -0.9684 0.2139
vn 0.0396 -0.9980 0.0488
vn -0.2448 -0.9584 -0.1470
vn -0.0459 -0.9864 0.1576
vn 0.1699 -0.9850 -0.0316
vn 0.1541 -0.9411 -0.3009
vn 0.0451 -0.9727 0.2276
vn 0.0580 -0.9687 -0.2414
vn 0.0373 -0.9986 -0.0362
vn 0.0512 -0.9883 -0.1439
vn 0.0966 -0.9738 -0.2058
vn 0.1512 -0.9296 -0.3362
vn 0.0709 -0.9974 -0.0132
vn -0.2691 -0.9629 0.0177
vn -0.0230 -0.9987 -0.0445
vn -0.0454 -0.9892 0.1390
vn -0.1588 -0.9636 -0.2150
vn 0.0165 -0.9984 0.0548
vn 0.1785 -0.9799 0.0894
vn -0.1721 -0.9788 -0.1114
vn 0.0596 -0.9577 0.2815
vn -0.0947 -0.9761 -0.1957
vn 0.1270 -0.9859 -0.1088
vn -0.0963 0.0212 0.9951
vn -0.0561 0.0166 0.9983
vn -0.0531 -0.0470 0.9975
vn 0.0277 0.2081 0.9777
vn -0.1811 0.2055 0.9617
vn -0.1026 -0.1297 0.9862
vn -0.1624 0.3897 0.9065
vn 0.0669 0.0374 0.9971
vn -0.2188 -0.4063 0.8872
vn 0.0905 -0.1975 0.9761
vn -0.0285 -0.2178 0.9756
vn 0.2460 0.0440 0.9683
vn -0.0998 -0.1952 0.9757
vn -0.1881 0.1479 0.9709
vn 0.2579 -0.1385 0.9562
vn 0.1634 -0.2160 0.9626
vn -0.1588 -0.2017 0.9665
vn -0.0620 0.0783 0.9950
vn -0.2300 0.0446 0.9722
vn -0.1750 0.3722 0.9115
vn 0.1546 -0.0914 0.9837
vn 0.0940 0.3429 0.9347
vn 0.4927 0.2940 0.8190
vn -0.2020 -0.2899 0.9355
vn 0.0424 0.1207 0.9918
vn -0.1927 0.1302 0.9726
vn -0.2440 -0.1005 0.9645
vn 0.9792 -0.1326 -0.1539
vn 0.9659 -0.0362 -0.2562
vn 0.8925 0.3315 -0.3059
vn 0.9931 -0.0020 -0.1174
vn 0.9952 -0.0279 0.0943
vn 0.9668 0.2122 -0.1426
vn 0.9838 -0.1788 -0.0095
vn 0.9211 0.0063 -0.3893
vn 0.8683 0.3005 -0.3946
vn 0.9947 0.0987 -0.0297
vn 0.9469 0.0858 -0.3099
vn 0.9486 0.0835 -0.3051
vn 0.9972 0.0743 -0.0085
vn 0.9553 -0.2901 0.0561
vn 0.9545 -0.2983 0.0053
vn 0.9690 0.2151 -0.1218
vn 0.9251 0.1879 0.3301
vn 0.9129 0.1096 0.3933
vn 0.9933 -0.0172 -0.1146
vn 0.9827 0.0355 -0.1817
vn 0.9826 -0.0053 -0.1856
vn 0.9944 0.0351 -0.0998
vn 0.9965 0.0186 0.0820
vn 0.9881 0.1401 -0.0638
vn 0.9660 -0.1332 -0.2214
vn 0.9680 -0.2294 -0.1021
vn 0.9965 0.0064 -0.0828
vn -0.9740 0.0509 -0.2207
vn -0.9632 0.0684 0.2601
vn -0.9442 -0.2146 0.2497
vn -0.9685 0.1296 -0.2127
vn -0.9937 -0.1120 0.0068
vn -0.9892 -0.0954 0.1115
vn -0.8366 0.2558 -0.4844
vn -0.9630 0.2480 -0.1053
vn -0.9826 0.1392 -0.1229
vn -0.9838 0.1705 0.0544
vn -0.9878 0.0888 0.1277
vn -0.9924 0.1087 -0.0576
vn -0.9846 0.1745 0.0027
vn -0.9957 0.0930 -0.0006
vn -0.9894 0.1361 -0.0516
vn -0.9649 -0.2431 0.0989
vn -0.9758 0.0616 -0.2099
vn -0.9929 0.0115 0.1185
vn -0.9789 0.1196 -0.1656
vn -0.9815 0.1163 -0.1518
vn -0.9694 0.1885 -0.1571
vn -0.9832 0.0779 -0.1652
vn -0.9833 0.0773 -0.1645
vn -0.9907 0.1155 -0.0719
vn -0.9585 0.2844 0.0209
vn -0.9399 0.2670 -0.2126
vn -0.9775 0.0809 -0.1950
vn -0.9383 -0.2938 0.1825
vn -0.9323 -0.3245 -0.1597
vn -0.9770 0.1697 -0.1289
vn -0.9962 -0.0006 -0.0873
vn -0.9340 -0.2942 0.2028
vn -0.9269 -0.3733 -0.0384
vn -0.9607 -0.1508 0.2331
vn -0.9904 -0.1342 -0.0317
vn -0.9999 -0.0093 -0.0113
vn 0.9861 0.1656 -0.0117
vn 0.9991 0.0177 0.0383
vn 0.9858 0.1405 0.0921
vn 0.9869 0.0963 0.1297
vn 0.9674 0.1179 -0.2242
vn 0.9961 -0.0847 0.0234
vn 0.9846 -0.0440 -0.1695
vn 0.9755 -0.2197 0.0050
vn 0.9839 0.1715 0.0503
vn -0.0025 0.0774 0.9970
vn 0.1546 0.0853 0.9843
vn -0.0958 0.3256 0.9406
vn 0.1163 0.0148 0.9931
vn -0.2628 -0.0559 0.9632
vn -0.1775 -0.1056 0.9784
vn -0.3151 0.1915 0.9295
vn 0.3633 -0.1135 0.9247
vn -0.1005 -0.1842 0.9777
vn -0.1140 -0.9804 0.1609
vn 0.2773 -0.9608 -0.0001
vn -0.1243 -0.9465 0.2977
vn 0.4291 -0.8883 -0.1639
vn 0.1738 -0.9829 0.0611
vn -0.0978 -0.9849 -0.1428
vn -0.1409 -0.9900 -0.0110
vn -0.1407 -0.9664 0.2153
vn 0.2635 -0.9595 0.0995
vn 0.1702 0.6722 -0.7205
vn -0.2559 0.6602 -0.7062
vn 0.2473 0.4369 -0.8648
vn -0.0089 0.7287 -0.6847
vn -0.1580 0.7946 -0.5862
vn -0.0611 0.7126 -0.6989
vn 0.1201 0.7164 -0.6873
vn -0.1233 0.5939 -0.7950
vn 0.2266 0.4553 -0.8610
vn 0.1874 0.9003 -0.3930
vn 0.1597 0.3965 -0.9040
vn 0.2298 0.8168 -0.5291
vn 0.2537 -0.9667 -0.0326
vn 0.2478 -0.9683 0.0324
vn -0.2448 -0.9440 0.2213
vn -0.0506 -0.0608 0.9969
vn 0.2148 -0.2083 0.9542
vn -0.0480 0.1027 0.9936
vn 0.9908 0.1354 0.0010
vn 0.9814 0.0065 0.1920
vn 0.9805 0.0128 0.1963
vn -0.9880 -0.1165 0.1012
vn -0.9840 -0.1166 0.1346
vn -0.9732 -0.1995 0.1145
vn -0.0360 0.1002 0.9943
vn -0.1853 -0.9395 0.2880
vn 0.3005 0.6423 -0.7051
vn 0.0894 0.7880 -0.6091
vn -0.0350 0.6101 -0.7915
vn -0.3801 0.6019 -0.7023
vn 0.1855 -0.9826 -0.0107
vn -0.2185 -0.9520 0.2145
vn -0.2415 -0.9686 -0.0594
vn 0.0020 -0.1813 0.9834
vn 0.0048 -0.0491 0.9988
vn 0.0638 -0.0795 0.9948
vn -0.0047 -0.1115 0.9938
vn -0.2930 -0.2530 0.9220
vn -0.1843 0.2894 0.9393
vn 0.1115 0.1486 0.9826
vn 0.0562 0.0707 0.9959
vn -0.0132 -0.1449 0.9894
vn -0.3204 -0.3666 0.8735
vn -0.1090 -0.1292 0.9856
vn 0.1608 0.1404 0.9769
vn 0.0911 -0.9808 0.1727
vn -0.0076 -0.9989 -0.0452
vn -0.0893 -0.9785 0.1859
vn -0.4579 -0.8103 -0.3658
vn -0.2275 -0.8812 -0.4145
vn -0.0710 -0.9938 0.0860
vn 0.0073 -0.9991 -0.0427
vn 0.0157 -0.9946 -0.1027
vn -0.0026 -0.9996 0.0295
vn 0.2056 0.6705 -0.7128
vn -0.2713 0.6303 -0.7274
vn -0.0496 0.7036 -0.7088
vn -0.1922 0.6826 -0.7050
vn 0.1310 0.7476 -0.6511
vn 0.3280 0.6488 -0.6867
vn 0.2808 0.6863 -0.6709
vn 0.1271 0.7494 -0.6498
vn 0.2477 0.7326 -0.6340
vn -0.0480 0.9067 -0.4190
vn 0.0443 0.7570 -0.6519
vn -0.2897 0.6326 -0.7183
vn -0.1285 -0.9915 0.0199
vn -0.1700 -0.9691 0.1789
vn -0.1320 -0.9275 -0.3496
vn -0.0621 0.3207 0.9452
vn -0.0801 0.3914 0.9167
vn 0.2384 0.3431 0.9085
vn -0.2353 -0.3384 0.9111
vn 0.3100 0.0418 0.9498
vn -0.0912 0.3504 0.9321
vn -0.3489 -0.5207 0.7792
vn 0.2674 -0.4187 0.8679
vn -0.0856 -0.0060 0.9963
vn -0.3130 0.0012 0.9498
vn 0.2729 -0.0135 0.9619
vn 0.1683 0.1163 0.9789
vn -0.0158 -0.9678 0.2512
vn 0.0906 -0.9546 -0.2836
vn -0.0131 -0.9851 0.1717
vn 0.0129 -0.9947 -0.1025
vn -0.0255 -0.9996 0.0077
vn -0.1792 -0.9252 -0.3345
vn -0.1455 -0.9892 0.0184
vn -0.1331 -0.9446 0.3000
vn -0.1236 -0.9918 -0.0321
vn 0.0716 0.7336 -0.6758
vn 0.0737 0.7107 -0.6996
vn -0.0715 0.7562 -0.6504
vn -0.0832 0.8071 -0.5846
vn -0.1385 0.6538 -0.7439
vn 0.1964 0.7599 -0.6197
vn -0.3199 0.7678 -0.5551
vn -0.1009 0.5619 -0.8210
vn 0.1290 0.3995 -0.9076
vn -0.0761 0.8634 -0.4987
vn 0.1719 0.6167 -0.7682
vn 0.0278 0.7116 -0.7020
vn -0.2149 0.8151 -0.5380
vn 0.1462 0.6803 -0.7182
vn -0.1308 0.6547 -0.7445
vn -0.1015 0.8401 -0.5328
vn -0.2349 0.5824 -0.7783
vn 0.0234 0.6204 -0.7839
vn -0.1502 0.5444 -0.8253
vn -0.4433 0.7789 -0.4436
vn 0.0617 0.5881 -0.8064
vn 0.0434 0.7367 -0.6748
vn 0.0479 0.7570 -0.6516
vn -0.3386 0.2821 -0.8977
vn 0.1501 0.5745 -0.8046
vn 0.0869 0.7383 -0.6689
vn 0.0920 0.7706 -0.6306
vn -0.1351 0.8666 -0.4804
vn 0.1069 0.7091 -0.6970
vn -0.0770 0.5645 -0.8218
vn 0.1581 0.6845 -0.7117
vn 0.1797 0.5500 -0.8156
vn -0.3072 0.7005 -0.6442
vn 0.1015 0.7227 -0.6836
vn 0.1025 0.8252 -0.5554
vn -0.2850 0.6611 -0.6940
vn 0.0832 -0.9963 -0.0202
vn 0.0204 -0.9727 -0.2311
vn -0.2493 -0.9684 -0.0099
vn -0.0436 -0.9983 -0.0390
vn 0.0054 -0.9991 0.0412
vn -0.2912 -0.8495 0.4399
vn -0.0120 -0.9960 0.0883
vn -0.2437 -0.9697 -0.0179
vn -0.0781 -0.9719 0.2221
vn -0.3757 -0.9112 0.1689
vn -0.3659 -0.9055 -0.2150
vn -0.2677 -0.9618 0.0572
vn 0.0404 -0.9987 -0.0324
vn 0.1267 -0.9716 -0.1999
vn -0.1608 -0.9575 0.2393
vn 0.0044 -0.9889 -0.1487
vn 0.0362 -0.9987 0.0359
vn -0.1698 -0.9773 0.1263
vn 0.0281 -0.9996 0.0093
vn 0.1735 -0.9672 -0.1855
vn -0.2071 -0.9483 -0.2404
vn -0.1256 -0.9879 -0.0913
vn 0.0101 -0.9843 -0.1762
vn -0.0053 -0.9904 0.1379
vn 0.0974 -0.9709 0.2189
vn 0.0303 -0.9939 -0.1056
vn 0.0345 -0.9994 -0.0010
vn 0.1007 -0.1977 0.9751
vn -0.0498 0.0216 0.9985
vn -0.2230 0.0886 0.9708
vn 0.1938 0.0641 0.9789
vn -0.1110 0.1644 0.9801
vn -0.0480 -0.0857 0.9952
vn 0.2067 0.1124 0.9719
vn -0.2574 0.3529 0.8995
vn 0.3236 0.1139 0.9393
vn -0.0274 -0.0694 0.9972
vn 0.2157 0.1838 0.9590
vn 0.4954 -0.1884 0.8480
vn 0.0487 0.1322 0.9900
vn 0.1563 0.4338 0.8874
vn -0.0114 0.0501 0.9987
vn -0.1057 0.2065 0.9727
vn -0.1341 -0.2310 0.9637
vn -0.1904 0.2138 0.9582
vn 0.1749 -0.3168 0.9322
vn 0.1669 0.0357 0.9853
vn 0.0200 -0.2773 0.9606
vn 0.1592 0.2961 0.9418
vn -0.1996 -0.0895 0.9758
vn -0.2346 -0.2492 0.9396
vn 0.0671 0.0977 0.9929
vn -0.1730 0.1099 0.9788
vn 0.1422 0.1933 0.9708
vn -0.0905 0.1711 0.9811
vn -0.0887 -0.3133 0.9455
vn 0.1622 0.0655 0.9846
vn 0.0172 -0.1162 0.9931
vn -0.1815 -0.1224 0.9757
vn -0.1824 -0.0989 0.9782
vn -0.1013 -0.0389 0.9941
vn -0.1275 0.2036 0.9707
vn 0.1959 0.0119 0.9806
vn 0.2525 -0.9615 -0.1081
vn 0.0369 -0.9522 0.3032
vn -0.2490 -0.9685 -0.0023
vn 0.0020 -0.9545 0.2981
vn -0.0108 -0.9905 -0.1371
vn -0.1465 -0.9702 -0.1930
vn 0.0612 -0.9908 0.1208
vn 0.0829 -0.9964 -0.0160
vn 0.0762 -0.9593 0.2717
vn -0.0391 0.8179 -0.5740
vn 0.1599 0.4315 -0.8878
vn -0.3863 0.6610 -0.6433
vn 0.1726 0.6253 -0.7611
vn -0.0104 0.7181 -0.6959
vn 0.1148 0.7968 -0.5932
vn -0.0233 0.7917 -0.6105
vn 0.1270 0.4664 -0.8754
vn 0.0741 0.5606 -0.8248
vn -0.4142 0.4818 -0.7722
vn -0.3891 0.7222 -0.5719
vn 0.0057 0.6946 -0.7194
vn 0.1505 -0.9807 -0.1248
vn -0.0157 -0.9662 0.2574
vn -0.4099 -0.9113 -0.0386
vn 0.0691 0.0635 0.9956
vn -0.0572 0.0576 0.9967
vn -0.3163 -0.1573 0.9355
vt 0.000000 1.000000
vt 0.000000 0.958333
vt 0.041667 1.000000
vt -0.333333 0.166667
vt -0.250000 0.166667
vt -0.250000 0.250000
vt 0.916667 0.250000
vt 1.000000 0.166667
vt 1.000000 0.250000
vt 0.666667 0.958333
vt 0.625000 1.000000
vt 0.625000 0.958333
vt 0.250000 -0.416667
vt 0.333333 -0.500000
vt 0.333333 -0.416667
vt 0.250000 -0.166667
vt 0.333333 -0.083333
vt 0.250000 -0.083333
vt -0.083333 -0.083333
vt -0.000000 -0.166667
vt -0.000000 -0.083333
vt -0.083333 -0.416667
vt -0.000000 -0.500000
vt -0.000000 -0.416667
vt 0.500000 0.958333
vt 0.458333 1.000000
vt 0.458333 0.958333
vt 0.458333 0.791667
vt 0.500000 0.833333
vt 0.458333 0.833333
vt 0.625000 0.791667
vt 0.666667 0.833333
vt 0.625000 0.833333
vt 0.625000 0.541667
vt 0.666667 0.500000
vt 0.666667 0.541667
vt 0.458333 0.500000
vt 0.500000 0.541667
vt 0.458333 0.541667
vt 0.583333 0.166667
vt 0.666667 0.250000
vt 0.583333 0.250000
vt 0.166667 0.500000
vt 0.208333 0.500000
vt 0.208333 0.541667
vt 0.166667 0.458333
vt -0.000000 0.166667
vt 0.083333 0.166667
vt 0.083333 0.250000
vt 0.166667 1.000000
vt 0.166667 0.958333
vt 0.208333 1.000000
vt 0.125000 0.958333
vt 0.000000 0.833333
vt -0.000000 0.791667
vt 0.041667 0.833333
vt 0.083333 0.833333
vt 0.083333 0.791667
vt 0.125000 0.833333
vt 0.041667 0.791667
vt -0.000000 0.750000
vt -0.000000 0.708333
vt 0.041667 0.750000
vt 0.166667 0.916667
vt 0.125000 0.875000
vt 0.166667 0.875000
vt 0.125000 0.916667
vt 0.083333 0.916667
vt 0.041667 0.875000
vt 0.083333 0.875000
vt 0.250000 1.000000
vt 0.250000 0.958333
vt 0.291667 1.000000
vt 0.208333 0.958333
vt 0.208333 0.916667
vt 0.250000 0.416667
vt 0.291667 0.416667
vt 0.291667 0.458333
vt 0.250000 0.375000
vt 0.166667 0.166667
vt 0.250000 0.166667
vt 0.250000 0.250000
vt 0.250000 0.500000
vt 0.250000 0.458333
vt 0.291667 0.500000
vt 0.208333 0.458333
vt 0.166667 0.416667
vt 0.166667 0.375000
vt 0.208333 0.416667
vt 0.250000 0.583333
vt 0.291667 0.583333
vt 0.291667 0.625000
vt 0.250000 0.541667
vt 0.291667 0.541667
vt 0.458333 0.458333
vt 0.500000 0.416667
vt 0.500000 0.458333
vt 0.375000 0.458333
vt 0.416667 0.416667
vt 0.416667 0.458333
vt 0.416667 0.166667
vt 0.500000 0.250000
vt 0.416667 0.250000
vt 0.458333 0.625000
vt 0.500000 0.583333
vt 0.500000 0.625000
vt 0.375000 0.625000
vt 0.416667 0.583333
vt 0.416667 0.625000
vt 0.375000 0.500000
vt 0.416667 0.541667
vt 0.375000 0.541667
vt 0.625000 0.625000
vt 0.666667 0.583333
vt 0.666667 0.625000
vt 0.541667 0.625000
vt 0.583333 0.583333
vt 0.583333 0.625000
vt 0.541667 0.541667
vt 0.583333 0.500000
vt 0.583333 0.541667
vt 0.583333 0.791667
vt 0.541667 0.833333
vt 0.541667 0.791667
vt 0.541667 0.708333
vt 0.583333 0.750000
vt 0.541667 0.750000
vt 0.666667 0.708333
vt 0.625000 0.750000
vt 0.625000 0.708333
vt 0.416667 0.791667
vt 0.375000 0.833333
vt 0.375000 0.791667
vt 0.416667 0.708333
vt 0.375000 0.750000
vt 0.375000 0.708333
vt 0.500000 0.708333
vt 0.458333 0.750000
vt 0.458333 0.708333
vt 0.416667 0.958333
vt 0.375000 1.000000
vt 0.375000 0.958333
vt 0.375000 0.875000
vt 0.416667 0.916667
vt 0.375000 0.916667
vt 0.458333 0.875000
vt 0.500000 0.916667
vt 0.458333 0.916667
vt -0.083333 -0.333333
vt -0.000000 -0.250000
vt -0.083333 -0.250000
vt -0.250000 -0.333333
vt -0.166667 -0.250000
vt -0.250000 -0.250000
vt -0.250000 -0.416667
vt -0.166667 -0.500000
vt -0.166667 -0.416667
vt -0.083333 0.000000
vt -0.000000 0.083333
vt -0.083333 0.083333
vt -0.250000 0.083333
vt -0.166667 0.000000
vt -0.166667 0.083333
vt -0.250000 -0.083333
vt -0.166667 -0.166667
vt -0.166667 -0.083333
vt 0.250000 0.000000
vt 0.333333 0.083333
vt 0.250000 0.083333
vt 0.083333 0.000000
vt 0.166667 0.083333
vt 0.083333 0.083333
vt 0.083333 -0.166667
vt 0.166667 -0.083333
vt 0.083333 -0.083333
vt 0.250000 -0.333333
vt 0.333333 -0.250000
vt 0.250000 -0.250000
vt 0.083333 -0.333333
vt 0.166667 -0.250000
vt 0.083333 -0.250000
vt 0.083333 -0.416667
vt 0.166667 -0.500000
vt 0.166667 -0.416667
vt 0.583333 0.958333
vt 0.541667 1.000000
vt 0.541667 0.958333
vt 0.541667 0.875000
vt 0.583333 0.916667
vt 0.541667 0.916667
vt 0.666667 0.875000
vt 0.625000 0.916667
vt 0.625000 0.875000
vt 0.625000 0.458333
vt 0.666667 0.416667
vt 0.666667 0.458333
vt 0.541667 0.458333
vt 0.583333 0.416667
vt 0.583333 0.458333
vt 0.750000 0.250000
vt 0.833333 0.166667
vt 0.833333 0.250000
vt 0.083333 0.416667
vt 0.125000 0.416667
vt 0.125000 0.458333
vt 0.083333 0.375000
vt -0.166667 0.166667
vt -0.083333 0.166667
vt -0.083333 0.250000
vt 0.083333 1.000000
vt 0.083333 0.958333
vt 0.125000 1.000000
vt 0.041667 0.958333
vt 0.000000 0.916667
vt 0.000000 0.875000
vt 0.041667 0.916667
vt 0.125000 0.375000
vt -0.000000 0.250000
vt -0.166667 0.250000
vt 0.541667 0.375000
vt 0.541667 0.416667
vt 0.666667 0.166667
vt 0.541667 0.500000
vt 0.500000 0.500000
vt 0.625000 0.500000
vt 0.625000 0.416667
vt 0.583333 0.875000
vt 0.583333 0.833333
vt 0.500000 0.875000
vt 0.500000 1.000000
vt 0.166667 -0.333333
vt -0.000000 -0.333333
vt 0.083333 -0.500000
vt 0.166667 -0.166667
vt 0.333333 -0.166667
vt 0.166667 0.000000
vt -0.000000 0.000000
vt 0.333333 0.166667
vt -0.250000 0.000000
vt -0.333333 -0.083333
vt -0.333333 0.000000
vt -0.250000 -0.166667
vt -0.333333 0.083333
vt -0.166667 -0.333333
vt -0.333333 -0.416667
vt -0.333333 -0.333333
vt -0.333333 -0.500000
vt -0.333333 -0.250000
vt -0.333333 -0.166667
vt -0.083333 -0.166667
vt 0.416667 0.875000
vt 0.416667 0.833333
vt 0.333333 0.916667
vt 0.333333 0.875000
vt 0.333333 0.833333
vt 0.333333 1.000000
vt 0.333333 0.958333
vt 0.416667 0.750000
vt 0.583333 0.833333
vt 0.500000 0.916667
vt 0.500000 0.833333
vt 0.666667 0.916667
vt 0.333333 0.750000
vt 0.333333 0.708333
vt 0.333333 0.833333
vt 0.333333 0.916667
vt 0.416667 0.833333
vt 0.333333 0.791667
vt 0.583333 0.708333
vt 0.833333 0.833333
vt 0.916667 0.916667
vt 0.833333 0.916667
vt 1.000000 0.833333
vt 0.916667 0.833333
vt 0.500000 0.750000
vt 0.750000 0.833333
vt 0.666667 0.833333
vt 0.750000 0.916667
vt 0.500000 0.791667
vt 0.541667 0.583333
vt 0.583333 0.666667
vt 0.541667 0.666667
vt 0.500000 0.666667
vt 0.666667 0.666667
vt 0.625000 0.666667
vt 0.625000 0.583333
vt 0.375000 0.583333
vt 0.333333 0.583333
vt 0.333333 0.500000
vt 0.333333 0.541667
vt 0.375000 0.666667
vt 0.416667 0.666667
vt 0.333333 0.666667
vt 0.333333 0.625000
vt 0.458333 0.666667
vt 0.375000 0.375000
vt 0.375000 0.416667
vt 0.333333 0.375000
vt 0.333333 0.416667
vt 0.333333 0.250000
vt 0.416667 0.500000
vt 0.333333 0.458333
vt 0.458333 0.416667
vt 0.208333 0.375000
vt 0.291667 0.375000
vt 0.166667 0.250000
vt 0.083333 1.333333
vt 0.083333 1.250000
vt 0.166667 1.333333
vt 0.000000 1.250000
vt 0.000000 1.166667
vt 0.166667 1.416667
vt 0.250000 1.500000
vt 0.250000 1.416667
vt 0.333333 1.500000
vt -0.083333 1.166667
vt -0.250000 1.000000
vt -0.250000 0.916667
vt -0.166667 1.000000
vt -0.333333 0.916667
vt -0.333333 0.833333
vt -0.166667 1.083333
vt -0.083333 1.083333
vt 0.458333 0.375000
vt 0.500000 0.166667
vt 0.458333 0.583333
vt 0.666667 0.750000
vt 0.416667 1.000000
vt 0.333333 0.000000
vt 0.333333 -0.333333
vt 0.250000 -0.500000
vt 0.583333 1.000000
vt 0.666667 0.375000
vt 0.583333 0.375000
vt 0.916667 0.166667
vt 0.041667 0.375000
vt 0.666667 1.000000
vt -0.083333 -0.500000
vt 0.666667 0.791667
vt -0.250000 -0.500000
vt 0.750000 0.166667
vt 0.500000 0.375000
vt 1.000000 0.916667
vt 0.416667 0.375000
vt 0.625000 0.375000
s 0
usemtl grass
f 6/4/2 120/5/2 69/6/2
f 258/7/3 2/8/3 67/9/3
f 256/13/5 2/14/5 72/15/5
f 85/16/6 81/17/6 255/18/6
f 254/19/7 16/20/7 123/21/7
f 253/22/8 8/23/8 124/24/8
f 81/40/14 132/41/14 247/42/14
f 15/47/17 111/48/17 99/49/17
f 27/80/32 75/81/32 150/82/32
f 117/101/41 160/102/41 244/103/41
f 181/149/57 88/150/57 228/151/57
f 182/152/58 183/153/58 227/154/58
f 226/155/59 20/156/59 184/157/59
f 185/158/60 87/159/60 225/160/60
f 224/161/61 62/162/61 187/163/61
f 223/164/62 38/165/62 188/166/62
f 189/167/63 117/168/63 222/169/63
f 190/170/64 191/171/64 221/172/64
f 121/173/65 192/174/65 220/175/65
f 193/176/66 108/177/66 219/178/66
f 194/179/67 195/180/67 218/181/67
f 217/182/68 29/183/68 196/184/68
f 211/200/74 24/201/74 204/202/74
f 36/207/77 84/208/77 207/209/77
f 207/209/91 84/208/91 98/218/91
f 84/208/92 15/47/92 98/218/92
f 206/219/95 36/207/95 207/209/95
f 12/222/101 211/200/101 132/41/101
f 194/179/117 196/184/117 64/231/117
f 124/24/118 194/179/118 40/232/118
f 124/24/119 77/233/119 217/182/119
f 121/173/120 195/180/120 37/234/120
f 16/20/121 218/181/121 121/173/121
f 88/150/122 194/179/122 218/181/122
f 219/178/123 12/235/123 85/16/123
f 37/234/124 219/178/124 85/16/124
f 64/231/125 219/178/125 195/180/125
f 220/175/126 63/236/126 190/170/126
f 39/237/127 220/175/127 190/170/127
f 123/21/128 121/173/128 220/175/128
f 221/172/129 27/80/129 111/48/129
f 15/47/130 221/172/130 111/48/130
f 39/237/131 221/172/131 87/159/131
f 75/81/132 117/168/132 5/238/132
f 27/80/133 222/169/133 75/81/133
f 63/236/134 222/169/134 191/171/134
f 223/164/135 62/162/135 186/239/135
f 83/240/136 186/239/136 35/241/136
f 83/240/137 122/242/137 223/164/137
f 120/5/138 187/163/138 36/207/138
f 6/4/139 224/161/139 120/5/139
f 119/243/140 186/239/140 224/161/140
f 225/160/141 15/47/141 84/208/141
f 187/163/142 84/208/142 36/207/142
f 187/163/143 185/158/143 225/160/143
f 226/155/144 61/244/144 182/152/144
f 74/245/145 182/152/145 26/246/145
f 3/247/146 226/155/146 74/245/146
f 122/242/147 183/153/147 38/165/147
f 110/248/148 122/242/148 14/249/148
f 26/246/149 227/154/149 110/248/149
f 86/250/150 88/150/150 16/20/150
f 183/153/151 86/250/151 38/165/151
f 183/153/152 181/149/152 228/151/152
f 110/259/163 174/260/163 26/261/163
f 110/259/164 126/262/164 232/189/164
f 3/265/166 233/144/166 118/266/166
f 74/267/167 174/260/167 233/144/167
f 35/270/172 235/271/172 170/272/172
f 6/273/173 235/271/173 119/274/173
f 83/276/175 126/262/175 14/277/175
f 35/270/176 236/278/176 83/276/176
f 115/300/200 117/101/200 244/103/200
f 98/218/218 15/47/218 99/49/218
f 150/82/226 75/81/226 115/300/226
f 75/81/227 5/238/227 115/300/227
f 149/306/230 27/80/230 150/82/230
f 147/307/234 104/308/234 20/309/234
f 147/307/235 100/310/235 104/308/235
f 100/310/236 8/311/236 104/308/236
f 145/312/237 147/307/237 20/309/237
f 118/313/240 68/314/240 3/315/240
f 118/313/241 145/312/241 68/314/241
f 145/312/242 20/309/242 68/314/242
f 100/310/249 138/316/249 8/311/249
f 141/317/252 113/318/252 29/319/252
f 141/317/253 67/320/253 113/318/253
f 67/320/254 2/321/254 113/318/254
f 139/322/255 141/317/255 29/319/255
f 138/316/258 77/323/258 8/311/258
f 138/316/259 139/322/259 77/323/259
f 139/322/260 29/319/260 77/323/260
f 99/49/271 111/48/271 149/306/271
f 111/48/272 27/80/272 149/306/272
f 33/325/281 247/42/281 160/102/281
f 253/22/297 40/232/297 181/149/297
f 184/157/298 181/149/298 61/244/298
f 20/156/299 253/22/299 184/157/299
f 254/19/300 39/237/300 185/158/300
f 188/166/301 185/158/301 62/162/301
f 188/166/302 86/250/302 254/19/302
f 255/18/303 33/329/303 189/167/303
f 192/174/304 189/167/304 63/236/304
f 37/234/305 255/18/305 192/174/305
f 193/176/306 72/15/306 24/330/306
f 196/184/307 193/176/307 64/231/307
f 196/184/308 113/331/308 256/13/308
f 204/202/314 72/335/314 258/7/314
f 69/6/316 120/5/316 206/219/316
f 120/5/317 36/207/317 206/219/317
f 258/7/321 72/335/321 2/8/321
f 256/13/323 113/331/323 2/14/323
f 85/16/324 12/235/324 81/17/324
f 254/19/325 86/250/325 16/20/325
f 253/22/326 104/338/326 8/23/326
f 81/40/332 12/222/332 132/41/332
f 117/101/335 33/325/335 160/102/335
f 181/149/351 40/232/351 88/150/351
f 182/152/352 61/244/352 183/153/352
f 226/155/353 68/340/353 20/156/353
f 185/158/354 39/237/354 87/159/354
f 224/161/355 186/239/355 62/162/355
f 223/164/356 122/242/356 38/165/356
f 189/167/357 33/329/357 117/168/357
f 190/170/358 63/236/358 191/171/358
f 121/173/359 37/234/359 192/174/359
f 193/176/360 24/330/360 108/177/360
f 194/179/361 64/231/361 195/180/361
f 217/182/362 77/233/362 29/183/362
f 211/200/368 108/341/368 24/201/368
f 12/222/371 108/341/371 211/200/371
f 194/179/387 217/182/387 196/184/387
f 124/24/388 217/182/388 194/179/388
f 124/24/389 8/23/389 77/233/389
f 121/173/390 218/181/390 195/180/390
f 16/20/391 88/150/391 218/181/391
f 88/150/392 40/232/392 194/179/392
f 219/178/393 108/177/393 12/235/393
f 37/234/394 195/180/394 219/178/394
f 64/231/395 193/176/395 219/178/395
f 220/175/396 192/174/396 63/236/396
f 39/237/397 123/21/397 220/175/397
f 123/21/398 16/20/398 121/173/398
f 221/172/399 191/171/399 27/80/399
f 15/47/400 87/159/400 221/172/400
f 39/237/401 190/170/401 221/172/401
f 75/81/402 222/169/402 117/168/402
f 27/80/403 191/171/403 222/169/403
f 63/236/404 189/167/404 222/169/404
f 223/164/405 188/166/405 62/162/405
f 83/240/406 223/164/406 186/239/406
f 83/240/407 14/249/407 122/242/407
f 120/5/408 224/161/408 187/163/408
f 6/4/409 119/243/409 224/161/409
f 119/243/410 35/241/410 186/239/410
f 225/160/411 87/159/411 15/47/411
f 187/163/412 225/160/412 84/208/412
f 187/163/413 62/162/413 185/158/413
f 226/155/414 184/157/414 61/244/414
f 74/245/415 226/155/415 182/152/415
f 3/247/416 68/340/416 226/155/416
f 122/242/417 227/154/417 183/153/417
f 110/248/418 227/154/418 122/242/418
f 26/246/419 182/152/419 227/154/419
f 86/250/420 228/151/420 88/150/420
f 183/153/421 228/151/421 86/250/421
f 183/153/422 61/244/422 181/149/422
f 110/259/433 232/189/433 174/260/433
f 110/259/434 14/277/434 126/262/434
f 3/265/436 74/267/436 233/144/436
f 74/267/437 26/261/437 174/260/437
f 35/270/442 119/274/442 235/271/442
f 6/273/443 69/343/443 235/271/443
f 83/276/445 236/278/445 126/262/445
f 35/270/446 170/272/446 236/278/446
f 115/300/470 5/238/470 117/101/470
f 33/325/479 81/40/479 247/42/479
f 253/22/495 124/24/495 40/232/495
f 184/157/496 253/22/496 181/149/496
f 20/156/497 104/338/497 253/22/497
f 254/19/498 123/21/498 39/237/498
f 188/166/499 254/19/499 185/158/499
f 188/166/500 38/165/500 86/250/500
f 255/18/501 81/17/501 33/329/501
f 192/174/502 255/18/502 189/167/502
f 37/234/503 85/16/503 255/18/503
f 193/176/504 256/13/504 72/15/504
f 196/184/505 256/13/505 193/176/505
f 196/184/506 29/183/506 113/331/506
f 204/202/512 24/201/512 72/335/512
usemtl rock030
f 1/1/1 112/2/1 73/3/1
f 114/10/4 71/11/4 257/12/4
f 89/25/9 80/26/9 252/27/9
f 251/28/10 17/29/10 127/30/10
f 250/31/11 9/32/11 128/33/11
f 249/34/12 7/35/12 76/36/12
f 94/37/13 131/38/13 248/39/13
f 9/43/15 133/44/15 78/45/15
f 9/43/16 134/46/16 133/44/16
f 13/50/18 136/51/18 82/52/18
f 13/50/19 137/53/19 136/51/19
f 7/54/20 103/55/20 102/56/20
f 54/57/21 139/58/21 138/59/21
f 54/57/22 140/60/22 139/58/22
f 19/61/23 67/62/23 141/63/23
f 52/64/24 142/65/24 100/66/24
f 52/64/25 143/67/25 142/65/25
f 53/68/26 101/69/26 144/70/26
f 34/71/27 145/72/27 118/73/27
f 34/71/28 146/74/28 145/72/28
f 52/64/29 100/66/29 147/75/29
f 51/76/30 148/77/30 135/78/30
f 51/76/31 149/79/31 148/77/31
f 49/83/33 151/84/33 97/85/33
f 49/83/34 152/86/34 151/84/34
f 50/87/35 98/88/35 153/89/35
f 30/90/36 154/91/36 114/92/36
f 30/90/37 155/93/37 154/91/37
f 49/83/38 97/85/38 156/94/38
f 246/95/39 48/96/39 96/97/39
f 245/98/40 55/99/40 159/100/40
f 243/104/42 47/105/42 95/106/42
f 242/107/43 56/108/43 163/109/43
f 130/110/44 164/111/44 241/112/44
f 240/113/45 28/114/45 112/115/45
f 239/116/46 57/117/46 167/118/46
f 238/119/47 45/120/47 168/121/47
f 169/122/48 92/123/48 237/124/48
f 236/125/49 58/126/49 171/127/49
f 69/128/50 172/129/50 235/130/50
f 173/131/51 91/132/51 234/133/51
f 174/134/52 175/135/52 233/136/52
f 126/137/53 176/138/53 232/139/53
f 177/140/54 116/141/54 231/142/54
f 230/143/55 60/144/55 179/145/55
f 229/146/56 41/147/56 180/148/56
f 197/185/69 107/186/69 216/187/69
f 215/188/70 65/189/70 199/190/70
f 78/191/71 200/192/71 214/193/71
f 213/194/72 19/195/72 103/196/72
f 212/197/73 66/198/73 203/199/73
f 21/203/75 205/204/75 105/205/75
f 21/203/76 206/206/76 205/204/76
f 25/210/78 208/211/78 109/212/78
f 25/210/79 209/213/79 208/211/79
f 28/214/80 76/215/80 210/216/80
f 210/216/81 101/69/81 53/68/81
f 210/216/82 76/215/82 101/69/82
f 76/215/83 7/54/83 101/69/83
f 208/211/84 210/216/84 53/68/84
f 208/211/85 209/213/85 210/216/85
f 209/213/86 28/214/86 210/216/86
f 109/212/87 137/53/87 13/50/87
f 109/212/88 208/211/88 137/53/88
f 208/211/89 53/68/89 137/53/89
f 207/217/90 98/88/90 50/87/90
f 205/204/93 207/217/93 50/87/93
f 205/204/94 206/206/94 207/217/94
f 105/205/96 134/46/96 9/43/96
f 105/205/97 205/204/97 134/46/97
f 205/204/98 50/87/98 134/46/98
f 211/220/99 66/198/99 202/221/99
f 48/96/100 211/220/100 202/221/100
f 129/223/102 203/199/102 45/120/102
f 96/97/103 129/223/103 18/224/103
f 96/97/104 202/221/104 212/197/104
f 93/225/105 103/196/105 7/35/105
f 203/199/106 93/225/106 45/120/106
f 203/199/107 201/226/107 213/194/107
f 214/193/108 65/189/108 198/227/108
f 128/33/109 198/227/109 44/228/109
f 128/33/110 78/191/110 214/193/110
f 125/229/111 199/190/111 41/147/111
f 17/29/112 215/188/112 125/229/112
f 44/228/113 215/188/113 92/123/113
f 89/25/114 107/186/114 11/230/114
f 199/190/115 89/25/115 41/147/115
f 65/189/116 216/187/116 199/190/116
f 229/146/153 60/144/153 178/251/153
f 127/30/154 178/251/154 43/252/154
f 127/30/155 125/229/155 229/146/155
f 230/143/156 25/253/156 109/254/156
f 91/132/157 109/254/157 13/255/157
f 91/132/158 178/251/158 230/143/158
f 231/142/159 1/256/159 73/257/159
f 179/145/160 73/257/160 25/253/160
f 179/145/161 177/140/161 231/142/161
f 174/134/162 176/138/162 59/258/162
f 233/136/165 34/263/165 118/264/165
f 82/268/168 91/132/168 13/255/168
f 34/263/169 234/133/169 82/268/169
f 59/258/170 234/133/170 175/135/170
f 235/130/171 58/126/171 170/269/171
f 236/125/174 42/275/174 126/137/174
f 90/279/177 92/123/177 17/29/177
f 171/127/178 90/279/178 42/275/178
f 171/127/179 169/122/179 237/124/179
f 238/119/180 57/117/180 166/280/180
f 47/105/181 238/119/181 166/280/181
f 18/224/182 238/119/182 131/38/182
f 239/116/183 32/281/183 80/282/183
f 95/106/184 80/282/184 11/283/184
f 95/106/185 166/280/185 239/116/185
f 240/113/186 1/284/186 116/285/186
f 167/118/187 116/285/187 32/281/187
f 167/118/188 165/286/188 240/113/188
f 241/112/189 56/108/189 162/287/189
f 22/288/190 241/112/190 162/287/190
f 10/289/191 241/112/191 106/290/191
f 71/291/192 163/109/192 23/292/192
f 4/293/193 242/107/193 71/291/193
f 22/288/194 242/107/194 70/294/194
f 243/104/195 11/283/195 107/295/195
f 163/109/196 107/295/196 23/292/196
f 56/108/197 243/104/197 163/109/197
f 244/296/198 55/99/198 158/297/198
f 115/298/199 158/297/199 31/299/199
f 245/98/201 46/301/201 130/110/201
f 10/289/202 245/98/202 130/110/202
f 31/299/203 245/98/203 79/302/203
f 246/95/204 18/224/204 94/37/204
f 159/100/205 94/37/205 46/301/205
f 159/100/206 157/303/206 246/95/206
f 156/94/207 106/290/207 22/288/207
f 156/94/208 97/85/208 106/290/208
f 97/85/209 10/289/209 106/290/209
f 154/91/210 156/94/210 22/288/210
f 154/91/211 155/93/211 156/94/211
f 155/93/212 49/83/212 156/94/212
f 114/92/213 70/294/213 4/293/213
f 114/92/214 154/91/214 70/294/214
f 154/91/215 22/288/215 70/294/215
f 153/89/216 99/304/216 51/76/216
f 153/89/217 98/88/217 99/304/217
f 151/84/219 153/89/219 51/76/219
f 151/84/220 152/86/220 153/89/220
f 152/86/221 50/87/221 153/89/221
f 97/85/222 135/78/222 10/289/222
f 97/85/223 151/84/223 135/78/223
f 151/84/224 51/76/224 135/78/224
f 150/305/225 115/298/225 31/299/225
f 148/77/228 150/305/228 31/299/228
f 148/77/229 149/79/229 150/305/229
f 135/78/231 79/302/231 10/289/231
f 135/78/232 148/77/232 79/302/232
f 148/77/233 31/299/233 79/302/233
f 145/72/238 146/74/238 147/75/238
f 146/74/239 52/64/239 147/75/239
f 144/70/243 102/56/243 54/57/243
f 144/70/244 101/69/244 102/56/244
f 101/69/245 7/54/245 102/56/245
f 142/65/246 144/70/246 54/57/246
f 142/65/247 143/67/247 144/70/247
f 143/67/248 53/68/248 144/70/248
f 100/66/250 142/65/250 138/59/250
f 142/65/251 54/57/251 138/59/251
f 139/58/256 140/60/256 141/63/256
f 140/60/257 19/61/257 141/63/257
f 102/56/261 140/60/261 54/57/261
f 102/56/262 103/55/262 140/60/262
f 103/55/263 19/61/263 140/60/263
f 136/51/264 143/67/264 52/64/264
f 136/51/265 137/53/265 143/67/265
f 137/53/266 53/68/266 143/67/266
f 82/52/267 146/74/267 34/71/267
f 82/52/268 136/51/268 146/74/268
f 136/51/269 52/64/269 146/74/269
f 99/304/270 149/79/270 51/76/270
f 133/44/273 152/86/273 49/83/273
f 133/44/274 134/46/274 152/86/274
f 134/46/275 50/87/275 152/86/275
f 78/45/276 155/93/276 30/90/276
f 78/45/277 133/44/277 155/93/277
f 133/44/278 49/83/278 155/93/278
f 247/324/279 48/96/279 157/303/279
f 55/99/280 247/324/280 157/303/280
f 161/326/282 131/38/282 47/105/282
f 164/111/283 161/326/283 56/108/283
f 46/301/284 248/39/284 164/111/284
f 249/34/285 28/114/285 165/286/285
f 168/121/286 165/286/286 57/117/286
f 168/121/287 93/225/287 249/34/287
f 169/122/288 128/33/288 44/228/288
f 58/126/289 250/31/289 169/122/289
f 21/327/290 250/31/290 172/129/290
f 173/131/291 127/30/291 43/252/291
f 176/138/292 173/131/292 59/258/292
f 42/275/293 251/28/293 176/138/293
f 252/27/294 32/328/294 177/140/294
f 60/144/295 252/27/295 177/140/295
f 180/148/296 89/25/296 252/27/296
f 257/12/309 23/332/309 197/185/309
f 65/189/310 257/12/310 197/185/310
f 30/262/311 257/12/311 200/192/311
f 201/226/312 67/333/312 19/195/312
f 204/334/313 201/226/313 66/198/313
f 69/336/315 206/206/315 21/203/315
f 73/3/318 209/213/318 25/210/318
f 73/3/319 112/2/319 209/213/319
f 112/2/320 28/214/320 209/213/320
f 114/10/322 4/337/322 71/11/322
f 89/25/327 11/230/327 80/26/327
f 251/28/328 90/279/328 17/29/328
f 250/31/329 105/339/329 9/32/329
f 249/34/330 93/225/330 7/35/330
f 94/37/331 18/224/331 131/38/331
f 246/95/333 157/303/333 48/96/333
f 245/98/334 158/297/334 55/99/334
f 243/104/336 161/326/336 47/105/336
f 242/107/337 162/287/337 56/108/337
f 130/110/338 46/301/338 164/111/338
f 240/113/339 165/286/339 28/114/339
f 239/116/340 166/280/340 57/117/340
f 238/119/341 129/223/341 45/120/341
f 169/122/342 44/228/342 92/123/342
f 236/125/343 170/269/343 58/126/343
f 69/128/344 21/327/344 172/129/344
f 173/131/345 43/252/345 91/132/345
f 174/134/346 59/258/346 175/135/346
f 126/137/347 42/275/347 176/138/347
f 177/140/348 32/328/348 116/141/348
f 230/143/349 178/251/349 60/144/349
f 229/146/350 125/229/350 41/147/350
f 197/185/363 23/332/363 107/186/363
f 215/188/364 198/227/364 65/189/364
f 78/191/365 30/262/365 200/192/365
f 213/194/366 201/226/366 19/195/366
f 212/197/367 202/221/367 66/198/367
f 211/220/369 204/334/369 66/198/369
f 48/96/370 132/342/370 211/220/370
f 129/223/372 212/197/372 203/199/372
f 96/97/373 212/197/373 129/223/373
f 96/97/374 48/96/374 202/221/374
f 93/225/375 213/194/375 103/196/375
f 203/199/376 213/194/376 93/225/376
f 203/199/377 66/198/377 201/226/377
f 214/193/378 200/192/378 65/189/378
f 128/33/379 214/193/379 198/227/379
f 128/33/380 9/32/380 78/191/380
f 125/229/381 215/188/381 199/190/381
f 17/29/382 92/123/382 215/188/382
f 44/228/383 198/227/383 215/188/383
f 89/25/384 216/187/384 107/186/384
f 199/190/385 216/187/385 89/25/385
f 65/189/386 197/185/386 216/187/386
f 229/146/423 180/148/423 60/144/423
f 127/30/424 229/146/424 178/251/424
f 127/30/425 17/29/425 125/229/425
f 230/143/426 179/145/426 25/253/426
f 91/132/427 230/143/427 109/254/427
f 91/132/428 43/252/428 178/251/428
f 231/142/429 116/141/429 1/256/429
f 179/145/430 231/142/430 73/257/430
f 179/145/431 60/144/431 177/140/431
f 174/134/432 232/139/432 176/138/432
f 233/136/435 175/135/435 34/263/435
f 82/268/438 234/133/438 91/132/438
f 34/263/439 175/135/439 234/133/439
f 59/258/440 173/131/440 234/133/440
f 235/130/441 172/129/441 58/126/441
f 236/125/444 171/127/444 42/275/444
f 90/279/447 237/124/447 92/123/447
f 171/127/448 237/124/448 90/279/448
f 171/127/449 58/126/449 169/122/449
f 238/119/450 168/121/450 57/117/450
f 47/105/451 131/38/451 238/119/451
f 18/224/452 129/223/452 238/119/452
f 239/116/453 167/118/453 32/281/453
f 95/106/454 239/116/454 80/282/454
f 95/106/455 47/105/455 166/280/455
f 240/113/456 112/115/456 1/284/456
f 167/118/457 240/113/457 116/285/457
f 167/118/458 57/117/458 165/286/458
f 241/112/459 164/111/459 56/108/459
f 22/288/460 106/290/460 241/112/460
f 10/289/461 130/110/461 241/112/461
f 71/291/462 242/107/462 163/109/462
f 4/293/463 70/294/463 242/107/463
f 22/288/464 162/287/464 242/107/464
f 243/104/465 95/106/465 11/283/465
f 163/109/466 243/104/466 107/295/466
f 56/108/467 161/326/467 243/104/467
f 244/296/468 160/344/468 55/99/468
f 115/298/469 244/296/469 158/297/469
f 245/98/471 159/100/471 46/301/471
f 10/289/472 79/302/472 245/98/472
f 31/299/473 158/297/473 245/98/473
f 246/95/474 96/97/474 18/224/474
f 159/100/475 246/95/475 94/37/475
f 159/100/476 55/99/476 157/303/476
f 247/324/477 132/342/477 48/96/477
f 55/99/478 160/344/478 247/324/478
f 161/326/480 248/39/480 131/38/480
f 164/111/481 248/39/481 161/326/481
f 46/301/482 94/37/482 248/39/482
f 249/34/483 76/36/483 28/114/483
f 168/121/484 249/34/484 165/286/484
f 168/121/485 45/120/485 93/225/485
f 169/122/486 250/31/486 128/33/486
f 58/126/487 172/129/487 250/31/487
f 21/327/488 105/339/488 250/31/488
f 173/131/489 251/28/489 127/30/489
f 176/138/490 251/28/490 173/131/490
f 42/275/491 90/279/491 251/28/491
f 252/27/492 80/26/492 32/328/492
f 60/144/493 180/148/493 252/27/493
f 180/148/494 41/147/494 89/25/494
f 257/12/507 71/11/507 23/332/507
f 65/189/508 200/192/508 257/12/508
f 30/262/509 114/10/509 257/12/509
f 201/226/510 258/345/510 67/333/510
f 204/334/511 258/345/511 201/226/511
