# Blender 4.0.1
# www.blender.org
mtllib tile_gate.mtl
o StairsTop
v -0.500000 -0.125000 -1.250000
v -0.500000 -0.125000 -0.500000
v -1.500000 -0.125000 -1.250000
v -1.500000 -0.125000 -0.500000
v -0.500000 -0.375000 -1.250000
v -1.500000 -0.375000 -1.250000
v -0.500000 -0.375000 -1.500000
v -1.500000 -0.375000 -1.500000
v -0.500000 0.100000 -1.250000
v -1.500000 0.100000 -1.250000
v -0.500000 -0.150000 -1.500000
v -0.500000 -0.125000 -1.475000
v -1.500000 -0.125000 -1.475000
v -1.500000 -0.150000 -1.500000
v -1.475000 0.125000 -0.500000
v -1.500000 0.100000 -0.500000
v -1.500000 0.100000 -1.250000
v -1.475000 0.125000 -1.225000
v -0.500000 0.100000 -0.500000
v -0.525000 0.125000 -0.500000
v -0.525000 0.125000 -1.225000
v -0.500000 0.100000 -1.250000
vn -0.0000 0.7071 -0.7071
vn -1.0000 -0.0000 -0.0000
vn -0.0000 1.0000 -0.0000
vn -0.0000 -1.0000 -0.0000
vn -0.0000 -0.0000 1.0000
vn -0.0000 -0.0000 -1.0000
vn 1.0000 -0.0000 -0.0000
vn -0.7071 0.7071 -0.0000
vn 0.7071 0.7071 -0.0000
vt 0.625000 0.993750
vt 0.600000 1.000000
vt 0.600000 0.750000
vt 0.350000 0.500000
vt 0.350000 0.750000
vt 0.125000 0.750000
vt 0.618750 0.258333
vt 0.381250 0.500000
vt 0.381250 0.258333
vt 0.000000 0.000000
vt 0.875000 0.500000
vt 0.625000 0.750000
vt 0.625000 0.500000
vt 0.375000 0.750000
vt 0.375000 1.000000
vt 0.625000 0.258333
vt 0.375000 0.000000
vt 0.600000 0.000000
vt 0.600000 0.250000
vt 0.625000 0.008333
vt 0.600000 0.500000
vt 0.625000 0.743750
vt 0.625000 0.756250
vt 0.125000 0.500000
vt 0.618750 0.500000
vt 0.875000 0.750000
vt 0.375000 0.250000
vt 0.625000 0.250000
vt 0.375000 0.500000
vt 0.625000 0.506250
vt 0.600000 0.750000
s 0
f 21/1/1 22/2/1 10/3/1
f 16/4/2 17/5/2 3/6/2
f 18/7/3 20/8/3 21/9/3
f 12/10/3 3/10/3 1/10/3
f 1/11/4 4/12/4 3/13/4
f 3/13/5 5/11/5 1/11/5
f 6/14/4 7/15/4 5/15/4
f 11/10/6 8/10/6 14/10/6
f 13/10/2 8/10/2 6/10/2
f 12/10/7 5/10/7 7/10/7
f 14/10/1 12/10/1 11/10/1
f 10/3/6 1/15/6 3/14/6
f 16/13/8 18/7/8 17/16/8
f 1/17/7 9/18/7 19/19/7
f 21/20/9 19/19/9 22/18/9
f 19/21/5 15/22/5 4/14/5
f 10/3/3 17/3/3 18/23/3
f 10/3/1 18/23/1 21/1/1
f 22/2/3 9/2/3 10/3/3
f 3/6/2 4/24/2 16/4/2
f 17/5/3 10/5/3 3/6/3
f 18/7/3 15/25/3 20/8/3
f 12/10/3 13/10/3 3/10/3
f 1/11/4 2/26/4 4/12/4
f 3/13/5 6/13/5 5/11/5
f 6/14/4 8/14/4 7/15/4
f 11/10/6 7/10/6 8/10/6
f 6/10/2 3/10/2 13/10/2
f 13/10/2 14/10/2 8/10/2
f 7/10/7 11/10/7 12/10/7
f 12/10/7 1/10/7 5/10/7
f 14/10/1 13/10/1 12/10/1
f 10/3/6 9/2/6 1/15/6
f 16/13/8 15/25/8 18/7/8
f 19/19/7 2/27/7 1/17/7
f 9/18/3 22/18/3 19/19/3
f 21/20/9 20/28/9 19/19/9
f 4/14/5 2/29/5 19/21/5
f 19/21/5 20/30/5 15/22/5
f 15/22/5 16/31/5 4/14/5
o Cube.001
v -0.750000 0.000000 -0.812500
v -0.750000 1.000000 -0.812500
v -0.500000 0.000000 -0.812500
v -0.500000 1.000000 -0.812500
v -0.795753 1.045753 -0.812500
v -0.579247 1.170753 -0.812500
v -0.858253 1.104621 -0.812500
v -0.733253 1.313980 -0.812500
v -1.000000 1.141139 -0.812500
v -1.000000 1.374987 -0.812500
v -0.722189 0.021177 -1.187181
v -0.750000 0.000000 -1.169326
v -0.726205 0.975248 -1.187810
v -0.750000 1.000000 -1.169326
v -0.739963 1.024232 -1.187500
v -0.520757 0.027409 -1.185326
v -0.500000 0.000000 -1.169326
v -0.537960 1.024232 -1.187500
v -0.500000 1.000000 -1.169326
v -0.524671 0.976251 -1.187506
v -0.792260 1.075751 -1.187500
v -0.756289 1.040558 -1.187500
v -0.795753 1.045753 -1.169326
v -0.619763 1.175342 -1.187500
v -0.579247 1.170753 -1.169326
v -0.590074 1.136522 -1.187500
v -0.873096 1.132292 -1.198154
v -0.827468 1.108913 -1.187500
v -0.858253 1.104621 -1.169326
v -0.769354 1.294077 -1.189585
v -0.733253 1.313980 -1.169326
v -0.727811 1.275827 -1.187500
v -0.977981 1.162343 -1.189281
v -1.000000 1.141139 -1.169326
v -0.972012 1.346193 -1.172980
v -1.000000 1.374987 -1.169326
v -0.724689 1.030086 -1.200010
v -0.559464 1.030086 -1.200010
v -0.602090 1.121932 -1.200010
v -0.738042 1.043439 -1.200010
v -0.781826 1.088593 -1.198583
v -0.635953 1.172813 -1.198583
v -0.727324 1.257788 -1.198583
v -0.811600 1.116637 -1.198583
v -0.750000 0.473881 -0.812500
v -0.750000 0.807215 -0.812500
v -0.500000 0.807215 -0.812500
v -0.500000 0.473881 -0.812500
v -0.717556 0.803302 -1.185941
v -0.732094 0.487159 -1.175030
v -0.750000 0.473881 -1.169326
v -0.750000 0.807215 -1.169326
v -0.500000 0.807215 -1.169326
v -0.500000 0.473881 -1.169326
v -0.530887 0.477310 -1.181003
v -0.516294 0.794458 -1.191618
v -0.500000 0.236941 -0.812500
v -0.728096 0.249918 -1.181629
v -0.500000 0.236941 -1.169326
v -0.750000 0.236941 -0.812500
v -0.750000 0.236941 -1.169326
v -0.526664 0.256150 -1.179773
v -0.700777 0.776923 -1.195424
v -0.713297 0.504665 -1.186028
v -0.540021 0.496183 -1.191171
v -0.527453 0.769306 -1.200313
v -1.250000 0.000000 -0.812500
v -1.250000 1.000000 -0.812500
v -1.500000 0.000000 -0.812500
v -1.500000 1.000000 -0.812500
v -1.204247 1.045753 -0.812500
v -1.420753 1.170753 -0.812500
v -1.141747 1.104621 -0.812500
v -1.266747 1.313980 -0.812500
v -1.277811 0.021177 -1.187181
v -1.250000 0.000000 -1.169326
v -1.273795 0.975248 -1.187810
v -1.250000 1.000000 -1.169326
v -1.260037 1.024232 -1.187500
v -1.479243 0.027409 -1.185326
v -1.500000 0.000000 -1.169326
v -1.462040 1.024232 -1.187500
v -1.500000 1.000000 -1.169326
v -1.475329 0.976251 -1.187506
v -1.207740 1.075751 -1.187500
v -1.243711 1.040558 -1.187500
v -1.204247 1.045753 -1.169326
v -1.380237 1.175342 -1.187500
v -1.420753 1.170753 -1.169326
v -1.409926 1.136522 -1.187500
v -1.126904 1.132292 -1.198154
v -1.172532 1.108913 -1.187500
v -1.141747 1.104621 -1.169326
v -1.230646 1.294077 -1.189585
v -1.266747 1.313980 -1.169326
v -1.272189 1.275827 -1.187500
v -1.022019 1.162343 -1.189281
v -1.027988 1.346193 -1.172980
v -1.275311 1.030086 -1.200010
v -1.440536 1.030086 -1.200010
v -1.397910 1.121932 -1.200010
v -1.261958 1.043439 -1.200010
v -1.218174 1.088593 -1.198583
v -1.364047 1.172813 -1.198583
v -1.272676 1.257788 -1.198583
v -1.188400 1.116637 -1.198583
v -1.250000 0.473881 -0.812500
v -1.250000 0.807215 -0.812500
v -1.500000 0.807215 -0.812500
v -1.500000 0.473881 -0.812500
v -1.282444 0.803302 -1.185941
v -1.267906 0.487159 -1.175030
v -1.250000 0.473881 -1.169326
v -1.250000 0.807215 -1.169326
v -1.500000 0.807215 -1.169326
v -1.500000 0.473881 -1.169326
v -1.469113 0.477310 -1.181003
v -1.483706 0.794458 -1.191618
v -1.500000 0.236941 -0.812500
v -1.271904 0.249918 -1.181629
v -1.500000 0.236941 -1.169326
v -1.250000 0.236941 -0.812500
v -1.250000 0.236941 -1.169326
v -1.473336 0.256150 -1.179773
v -1.299223 0.776923 -1.195424
v -1.286703 0.504665 -1.186028
v -1.459979 0.496183 -1.191171
v -1.472547 0.769306 -1.200313
vn -0.0273 0.0213 -0.9994
vn -0.7071 -0.7071 -0.0000
vn 0.9071 0.4210 -0.0000
vn -0.0000 -0.0000 1.0000
vn -1.0000 -0.0000 -0.0000
vn 0.5368 0.2491 -0.8061
vn -0.2495 -0.9684 -0.0000
vn 1.0000 -0.0000 -0.0000
vn -0.6856 -0.7279 -0.0000
vn 0.4413 -0.7643 -0.4702
vn 0.6810 0.7323 -0.0000
vn 0.2230 0.9748 -0.0000
vn -0.0583 0.0900 -0.9942
vn -0.7216 -0.1985 -0.6632
vn 0.4980 0.1380 -0.8561
vn -0.4235 -0.4328 -0.7958
vn 0.4177 0.3195 -0.8506
vn -0.2489 -0.7596 -0.6010
vn 0.2389 0.4452 -0.8630
vn -0.4935 0.0084 -0.8697
vn 0.0232 -0.4908 -0.8709
vn -0.0000 0.0063 -1.0000
vn 0.3847 0.0323 -0.9225
vn -0.0000 -0.0000 -1.0000
vn -0.4243 -0.4243 -0.8000
vn 0.5442 0.2526 -0.8000
vn 0.1920 -0.0713 -0.9788
vn 0.4086 0.4394 -0.8000
vn -0.4114 -0.4368 -0.8000
vn -0.7127 0.0849 -0.6963
vn -0.2679 -0.7602 -0.5918
vn 0.0368 0.1609 -0.9863
vn -0.0000 -1.0000 -0.0000
vn -0.4418 0.7653 -0.4682
vn -0.4540 -0.4540 -0.7667
vn -0.0000 -0.9057 -0.4239
vn -0.6471 0.3864 -0.6572
vn -0.3823 -0.4058 -0.8302
vn 0.4442 0.4777 -0.7579
vn 0.5932 -0.0000 -0.8050
vn 0.8073 -0.0000 -0.5901
vn -0.6135 -0.0000 -0.7897
vn -0.4567 -0.0097 -0.8896
vn 0.0094 -0.0054 -0.9999
vn 0.6890 -0.0559 -0.7226
vn 0.0085 0.0245 -0.9997
vn 0.3538 0.0016 -0.9353
vn -0.3176 0.0210 -0.9480
vn -0.0313 -0.0330 -0.9990
vn -0.0499 -0.4923 -0.8690
vn -0.5002 -0.0069 -0.8659
vn -0.0120 0.3315 -0.9434
vn -0.0016 -0.0108 -0.9999
vn 0.7071 -0.7071 -0.0000
vn -0.9071 0.4210 -0.0000
vn -0.5368 0.2491 -0.8061
vn 0.2495 -0.9684 -0.0000
vn 0.6856 -0.7279 -0.0000
vn -0.4413 -0.7643 -0.4702
vn -0.6810 0.7323 -0.0000
vn -0.2230 0.9748 -0.0000
vn 0.0583 0.0900 -0.9942
vn 0.7216 -0.1985 -0.6632
vn -0.4980 0.1380 -0.8561
vn 0.4235 -0.4328 -0.7958
vn -0.4177 0.3195 -0.8506
vn 0.2489 -0.7596 -0.6010
vn -0.2389 0.4452 -0.8630
vn 0.4935 0.0084 -0.8697
vn -0.0000 -0.6446 -0.7645
vn -0.6105 -0.0000 -0.7920
vn 0.4243 -0.4243 -0.8000
vn -0.5442 0.2526 -0.8000
vn -0.1920 -0.0713 -0.9788
vn -0.4086 0.4394 -0.8000
vn 0.4114 -0.4368 -0.8000
vn 0.1295 -0.0000 -0.9916
vn 0.1518 -0.5892 -0.7936
vn -0.0368 0.1609 -0.9863
vn 0.4418 0.7653 -0.4682
vn 0.4540 -0.4540 -0.7667
vn 0.6471 0.3864 -0.6572
vn 0.3823 -0.4059 -0.8302
vn -0.4442 0.4777 -0.7579
vn -0.5932 -0.0000 -0.8050
vn -0.8073 -0.0000 -0.5901
vn 0.4587 -0.0327 -0.8880
vn 0.4567 -0.0097 -0.8896
vn 0.0283 0.0273 -0.9992
vn -0.6890 -0.0559 -0.7226
vn -0.0085 0.0245 -0.9997
vn -0.3648 -0.0000 -0.9311
vn 0.3176 0.0210 -0.9480
vn 0.0313 -0.0330 -0.9990
vn 0.0499 -0.4923 -0.8690
vn 0.5002 -0.0069 -0.8659
vn 0.0120 0.3315 -0.9434
vn 0.0016 -0.0108 -0.9999
vn -0.5403 -0.0000 -0.8415
vn 0.0015 0.0005 -1.0000
vn 0.6105 -0.0000 -0.7920
vn 0.0397 -0.0237 -0.9989
vn -0.1295 -0.0000 -0.9916
vn -0.1518 -0.5892 -0.7936
vn 0.0955 0.6197 -0.7790
vn -0.3823 -0.4059 -0.8302
vn 0.7924 0.0503 -0.6079
vn 0.3486 -0.0474 -0.9361
vn -0.4587 -0.0327 -0.8880
vn -0.3035 -0.0000 -0.9528
vn -0.0283 0.0273 -0.9992
vn 0.3648 -0.0000 -0.9311
vn -0.4897 -0.0000 -0.8719
vn -0.0296 -0.0321 -0.9990
vn 0.0273 0.0213 -0.9994
vn 0.5403 -0.0000 -0.8415
vn -0.0232 -0.4908 -0.8709
vn -0.0015 0.0005 -1.0000
vn -0.3847 0.0323 -0.9225
vn -0.0397 -0.0237 -0.9989
vn 0.7127 0.0849 -0.6963
vn 0.2679 -0.7602 -0.5918
vn -0.0955 0.6197 -0.7790
vn 0.3823 -0.4058 -0.8302
vn -0.7924 0.0503 -0.6079
vn -0.3486 -0.0474 -0.9361
vn 0.6135 -0.0000 -0.7897
vn 0.3035 -0.0000 -0.9528
vn -0.0094 -0.0054 -0.9999
vn -0.3538 0.0016 -0.9353
vn 0.4897 -0.0000 -0.8719
vn 0.0296 -0.0321 -0.9990
vt 0.539647 0.274232
vt 0.618942 0.475768
vt 0.539647 0.475768
vt 0.625000 0.000000
vt 0.625000 0.237884
vt 0.625000 0.237884
vt 0.625000 0.512116
vt 0.625000 0.750000
vt 0.541667 1.000000
vt 0.541667 0.750000
vt 0.541667 0.237884
vt 0.541667 0.000000
vt 0.625000 0.474960
vt 0.625000 0.473757
vt 0.625000 1.000000
vt 0.541667 0.512116
vt 0.625000 0.474638
vt 0.625000 0.275351
vt 0.875000 0.512116
vt 0.625000 0.276140
vt 0.625000 0.473515
vt 0.625000 0.473805
vt 0.618942 0.274232
vt 0.625000 0.278431
vt 0.625000 0.276893
vt 0.625000 0.275395
vt 0.625000 0.474607
vt 0.381058 0.274232
vt 0.416667 0.237884
vt 0.420705 0.274232
vt 0.375000 0.500000
vt 0.381058 0.475768
vt 0.416667 0.512116
vt 0.420705 0.475768
vt 0.625000 0.250000
vt 0.625000 0.276516
vt 0.375000 0.512116
vt 0.125000 0.750000
vt 0.125000 0.512116
vt 0.458333 0.512116
vt 0.460353 0.274232
vt 0.416667 0.750000
vt 0.458333 0.750000
vt 0.458333 0.000000
vt 0.416667 0.000000
vt 0.458333 0.237884
vt 0.416667 1.000000
vt 0.458333 1.000000
vt 0.460353 0.475768
vt 0.375000 1.000000
vt 0.375000 0.750000
vt 0.375000 0.237884
vt 0.375000 0.000000
vt 0.375000 0.512116
vt 0.375000 0.250000
vt 0.625000 0.500000
vt 0.875000 0.750000
s 0
f 71/32/10 42/33/10 78/34/10
f 24/35/11 45/36/11 36/37/11
f 41/38/12 28/39/12 26/39/12
f 26/39/13 68/40/13 69/41/13
f 24/35/14 74/42/14 68/43/14
f 48/44/15 60/45/15 61/44/15
f 29/35/16 56/36/16 51/37/16
f 24/46/13 28/39/13 27/46/13
f 41/38/17 69/41/17 75/47/17
f 27/35/18 51/37/18 45/37/18
f 29/46/13 32/39/13 31/46/13
f 46/48/19 63/49/19 64/48/19
f 27/46/13 30/39/13 29/46/13
f 47/38/20 30/39/20 28/39/20
f 53/38/21 32/39/21 30/39/21
f 56/50/14 32/39/14 58/38/14
f 49/51/22 57/52/22 52/53/22
f 35/54/23 36/37/23 37/55/23
f 40/45/24 41/38/24 42/33/24
f 43/49/25 44/56/25 45/37/25
f 46/48/26 47/38/26 48/44/26
f 49/51/27 50/57/27 51/37/27
f 52/53/28 53/38/28 54/58/28
f 33/59/29 83/60/29 80/61/29
f 39/62/30 33/59/30 38/63/30
f 40/45/31 35/54/31 37/55/31
f 81/64/32 38/63/32 84/65/32
f 46/48/33 44/56/33 43/49/33
f 44/56/34 36/37/34 45/36/34
f 47/38/35 40/45/35 48/44/35
f 52/53/36 50/57/36 49/51/36
f 46/48/37 53/38/37 47/38/37
f 50/57/38 45/37/38 51/37/38
f 56/66/39 57/52/39 55/67/39
f 51/37/40 55/67/40 49/51/40
f 53/38/41 57/52/41 58/38/41
f 39/68/42 23/69/42 34/70/42
f 59/55/33 61/44/33 60/45/33
f 44/56/43 61/44/43 62/56/43
f 37/55/44 62/56/44 59/55/44
f 37/55/45 60/45/45 40/45/45
f 63/49/33 65/58/33 64/48/33
f 50/57/46 65/58/46 66/57/46
f 43/49/47 66/57/47 63/49/47
f 46/48/48 65/58/48 54/58/48
f 75/47/49 42/33/49 41/38/49
f 76/71/50 78/34/50 75/47/50
f 35/54/51 74/42/51 36/37/51
f 72/72/52 74/42/52 71/32/52
f 76/71/17 79/73/17 81/64/17
f 75/47/17 70/74/17 76/71/17
f 67/75/14 83/60/14 82/76/14
f 68/43/14 73/77/14 67/75/14
f 70/74/13 82/78/13 79/73/13
f 69/41/13 67/79/13 70/74/13
f 80/61/53 77/80/53 84/65/53
f 77/80/54 88/34/54 78/34/54
f 80/61/55 38/63/55 33/59/55
f 79/73/13 23/81/13 25/82/13
f 82/76/14 34/83/14 23/84/14
f 81/64/17 25/82/17 39/85/17
f 76/71/56 84/65/56 77/80/56
f 80/61/57 73/77/57 72/72/57
f 85/32/58 87/80/58 86/72/58
f 77/80/59 86/72/59 87/80/59
f 72/72/60 85/32/60 86/72/60
f 78/34/61 85/32/61 71/32/61
f 133/32/62 106/33/62 99/54/62
f 109/36/63 90/35/63 100/37/63
f 94/39/64 105/38/64 92/39/64
f 130/40/13 92/39/13 131/41/13
f 136/42/17 90/35/17 130/43/17
f 112/44/65 122/45/65 104/45/65
f 56/36/66 95/35/66 115/37/66
f 90/46/13 94/39/13 92/39/13
f 131/41/14 105/38/14 137/47/14
f 115/37/67 93/35/67 109/37/67
f 95/46/13 32/39/13 96/39/13
f 110/48/68 125/49/68 107/49/68
f 93/46/13 96/39/13 94/39/13
f 96/39/69 111/38/69 94/39/69
f 32/39/70 117/38/70 96/39/70
f 120/52/71 113/51/71 116/53/71
f 99/54/72 101/55/72 100/37/72
f 104/45/73 106/33/73 105/38/73
f 107/49/74 109/37/74 108/56/74
f 110/48/75 112/44/75 111/38/75
f 113/51/76 115/37/76 114/57/76
f 116/53/77 118/58/77 117/38/77
f 145/60/78 97/59/78 142/61/78
f 103/62/79 97/59/79 98/86/79
f 99/54/31 104/45/31 101/55/31
f 143/64/80 102/63/80 103/85/80
f 108/56/33 110/48/33 107/49/33
f 108/56/81 100/37/81 101/55/81
f 111/38/82 104/45/82 105/38/82
f 114/57/83 116/53/83 113/51/83
f 110/48/84 117/38/84 118/58/84
f 114/57/85 109/37/85 107/49/85
f 56/66/86 120/52/86 58/87/86
f 115/37/87 119/67/87 56/36/87
f 120/52/88 117/38/88 58/38/88
f 89/69/42 103/68/42 98/70/42
f 123/44/33 121/55/33 122/45/33
f 108/56/89 123/44/89 112/44/89
f 101/55/90 124/56/90 108/56/90
f 122/45/45 101/55/45 104/45/45
f 127/58/33 125/49/33 126/48/33
f 114/57/91 127/58/91 118/58/91
f 107/49/92 128/57/92 114/57/92
f 127/58/93 110/48/93 118/58/93
f 106/33/94 137/47/94 105/38/94
f 140/34/95 138/71/95 137/47/95
f 99/54/96 136/42/96 133/32/96
f 136/42/97 134/72/97 133/32/97
f 141/73/14 138/71/14 143/64/14
f 132/74/14 137/47/14 138/71/14
f 145/60/17 129/75/17 144/76/17
f 135/77/17 130/43/17 129/75/17
f 144/78/13 132/74/13 141/73/13
f 129/79/13 131/41/13 132/74/13
f 142/61/98 139/80/98 134/72/98
f 150/34/99 139/80/99 140/34/99
f 102/63/100 142/61/100 97/59/100
f 89/81/13 141/73/13 91/82/13
f 98/83/17 144/76/17 89/84/17
f 91/82/14 143/64/14 103/85/14
f 138/71/101 146/65/101 143/64/101
f 135/77/102 142/61/102 134/72/102
f 149/80/103 147/32/103 148/72/103
f 139/80/104 148/72/104 134/72/104
f 134/72/105 147/32/105 133/32/105
f 147/32/106 140/34/106 133/32/106
f 71/32/107 35/54/107 42/33/107
f 24/35/11 27/35/11 45/36/11
f 41/38/12 47/38/12 28/39/12
f 26/39/13 24/46/13 68/40/13
f 24/35/14 36/37/14 74/42/14
f 48/44/15 40/45/15 60/45/15
f 29/35/16 31/35/16 56/36/16
f 24/46/13 26/39/13 28/39/13
f 41/38/17 26/39/17 69/41/17
f 27/35/18 29/35/18 51/37/18
f 29/46/13 30/39/13 32/39/13
f 46/48/19 43/49/19 63/49/19
f 27/46/13 28/39/13 30/39/13
f 47/38/20 53/38/20 30/39/20
f 53/38/21 58/38/21 32/39/21
f 56/50/14 31/88/14 32/39/14
f 49/51/22 55/67/22 57/52/22
f 33/59/108 34/83/108 83/60/108
f 39/62/79 34/86/79 33/59/79
f 40/45/109 42/33/109 35/54/109
f 81/64/110 39/85/110 38/63/110
f 46/48/33 48/44/33 44/56/33
f 44/56/34 37/55/34 36/37/34
f 47/38/35 41/38/35 40/45/35
f 52/53/111 54/58/111 50/57/111
f 46/48/37 54/58/37 53/38/37
f 50/57/38 43/49/38 45/37/38
f 56/66/112 58/87/112 57/52/112
f 51/37/113 56/36/113 55/67/113
f 53/38/114 52/53/114 57/52/114
f 39/68/42 25/82/42 23/69/42
f 59/55/33 62/56/33 61/44/33
f 44/56/43 48/44/43 61/44/43
f 37/55/44 44/56/44 62/56/44
f 37/55/45 59/55/45 60/45/45
f 63/49/33 66/57/33 65/58/33
f 50/57/46 54/58/46 65/58/46
f 43/49/115 50/57/115 66/57/115
f 46/48/48 64/48/48 65/58/48
f 75/47/116 78/34/116 42/33/116
f 76/71/117 77/80/117 78/34/117
f 35/54/118 71/32/118 74/42/118
f 72/72/119 73/77/119 74/42/119
f 76/71/17 70/74/17 79/73/17
f 75/47/17 69/41/17 70/74/17
f 67/75/14 73/77/14 83/60/14
f 68/43/14 74/42/14 73/77/14
f 70/74/13 67/79/13 82/78/13
f 69/41/13 68/40/13 67/79/13
f 80/61/120 72/72/120 77/80/120
f 77/80/54 87/80/54 88/34/54
f 80/61/55 84/65/55 38/63/55
f 79/73/13 82/78/13 23/81/13
f 82/76/14 83/60/14 34/83/14
f 81/64/17 79/73/17 25/82/17
f 76/71/121 81/64/121 84/65/121
f 80/61/122 83/60/122 73/77/122
f 85/32/123 88/34/123 87/80/123
f 77/80/59 72/72/59 86/72/59
f 72/72/60 71/32/60 85/32/60
f 78/34/61 88/34/61 85/32/61
f 133/32/124 140/34/124 106/33/124
f 109/36/63 93/35/63 90/35/63
f 94/39/64 111/38/64 105/38/64
f 130/40/13 90/46/13 92/39/13
f 136/42/17 100/37/17 90/35/17
f 112/44/65 123/44/65 122/45/65
f 56/36/66 31/35/66 95/35/66
f 90/46/13 93/46/13 94/39/13
f 131/41/14 92/39/14 105/38/14
f 115/37/67 95/35/67 93/35/67
f 95/46/13 31/46/13 32/39/13
f 110/48/68 126/48/68 125/49/68
f 93/46/13 95/46/13 96/39/13
f 96/39/69 117/38/69 111/38/69
f 32/39/70 58/38/70 117/38/70
f 120/52/71 119/67/71 113/51/71
f 145/60/125 98/83/125 97/59/125
f 103/62/126 102/63/126 97/59/126
f 99/54/127 106/33/127 104/45/127
f 143/64/128 146/65/128 102/63/128
f 108/56/33 112/44/33 110/48/33
f 108/56/81 109/36/81 100/37/81
f 111/38/82 112/44/82 104/45/82
f 114/57/129 118/58/129 116/53/129
f 110/48/84 111/38/84 117/38/84
f 114/57/85 115/37/85 109/37/85
f 56/66/130 119/67/130 120/52/130
f 115/37/131 113/51/131 119/67/131
f 120/52/132 116/53/132 117/38/132
f 89/69/42 91/82/42 103/68/42
f 123/44/33 124/56/33 121/55/33
f 108/56/89 124/56/89 123/44/89
f 101/55/90 121/55/90 124/56/90
f 122/45/45 121/55/45 101/55/45
f 127/58/33 128/57/33 125/49/33
f 114/57/91 128/57/91 127/58/91
f 107/49/133 125/49/133 128/57/133
f 127/58/93 126/48/93 110/48/93
f 106/33/134 140/34/134 137/47/134
f 140/34/135 139/80/135 138/71/135
f 99/54/136 100/37/136 136/42/136
f 136/42/137 135/77/137 134/72/137
f 141/73/14 132/74/14 138/71/14
f 132/74/14 131/41/14 137/47/14
f 145/60/17 135/77/17 129/75/17
f 135/77/17 136/42/17 130/43/17
f 144/78/13 129/79/13 132/74/13
f 129/79/13 130/40/13 131/41/13
f 142/61/138 146/65/138 139/80/138
f 150/34/99 149/80/99 139/80/99
f 102/63/100 146/65/100 142/61/100
f 89/81/13 144/78/13 141/73/13
f 98/83/17 145/60/17 144/76/17
f 91/82/14 141/73/14 143/64/14
f 138/71/139 139/80/139 146/65/139
f 135/77/140 145/60/140 142/61/140
f 149/80/141 150/34/141 147/32/141
f 139/80/104 149/80/104 148/72/104
f 134/72/105 148/72/105 147/32/105
f 147/32/106 150/34/106 140/34/106
